<svg width="1334" height="750" viewBox="0 0 1334 750" fill="none" xmlns="http://www.w3.org/2000/svg">
<rect x="57" y="58" width="1211" height="634" rx="24" fill="#15364F" stroke="white" stroke-width="20"/>
<path d="M294.835 384.24C297.075 390.027 300.295 393.013 304.495 393.2V396C300.762 395.72 295.768 395.58 289.515 395.58C281.488 395.58 275.515 395.72 271.595 396V393.2C275.142 393.013 277.662 392.593 279.155 391.94C280.742 391.193 281.535 389.887 281.535 388.02C281.535 386.433 280.975 384.24 279.855 381.44L271.315 358.48H237.435L231.695 373.32C229.828 378.36 228.895 382.187 228.895 384.8C228.895 387.693 229.875 389.793 231.835 391.1C233.888 392.407 236.968 393.107 241.075 393.2V396C235.755 395.72 230.388 395.58 224.975 395.58C220.775 395.58 217.275 395.72 214.475 396V393.2C219.142 392.08 222.828 388.02 225.535 381.02L258.435 296.18H260.675L294.835 384.24ZM270.195 355.68L254.515 313.82L238.555 355.68H270.195ZM371.399 380.74C371.399 385.033 372.192 388.16 373.779 390.12C375.365 392.08 378.119 393.06 382.039 393.06V396C379.145 395.72 376.252 395.58 373.359 395.58C367.479 395.58 362.625 396.233 358.799 397.54V385.08C357.119 389.28 354.599 392.5 351.239 394.74C347.879 396.887 343.772 397.96 338.919 397.96C329.959 397.96 322.912 394.74 317.779 388.3C312.739 381.86 310.265 372.433 310.359 360.02C310.359 351.9 311.759 344.993 314.559 339.3C317.452 333.513 321.279 329.173 326.039 326.28C330.892 323.387 336.212 321.94 341.999 321.94C345.545 321.94 348.765 322.64 351.659 324.04C354.645 325.347 357.025 327.4 358.799 330.2V303.04C358.799 298.747 358.005 295.62 356.419 293.66C354.832 291.7 352.079 290.72 348.159 290.72V287.78C351.145 288.06 354.039 288.2 356.839 288.2C362.719 288.2 367.572 287.547 371.399 286.24V380.74ZM342.979 393.76C346.619 393.76 349.885 392.36 352.779 389.56C355.672 386.76 357.679 382.793 358.799 377.66V335.94C356.279 328.753 351.052 325.16 343.119 325.16C337.332 325.16 332.665 328.147 329.119 334.12C325.572 340 323.845 348.633 323.939 360.02C323.845 371.22 325.432 379.667 328.699 385.36C331.965 390.96 336.725 393.76 342.979 393.76ZM496.566 382.98C496.566 386.807 497.36 389.467 498.946 390.96C500.533 392.36 503.286 393.06 507.206 393.06V396C498.62 395.627 493.02 395.44 490.406 395.44C487.793 395.44 482.566 395.627 474.726 396V393.06C478.18 393.06 480.56 392.36 481.866 390.96C483.266 389.467 483.966 386.807 483.966 382.98V342.52C483.966 338.973 483.733 336.127 483.266 333.98C482.893 331.74 481.913 329.92 480.326 328.52C478.833 327.12 476.5 326.42 473.326 326.42C469.78 326.42 466.56 327.54 463.666 329.78C460.773 332.02 458.486 335.1 456.806 339.02C455.22 342.847 454.426 347.093 454.426 351.76V382.98C454.426 386.807 455.22 389.467 456.806 390.96C458.393 392.36 461.146 393.06 465.066 393.06V396C456.48 395.627 450.88 395.44 448.266 395.44C445.653 395.44 440.426 395.627 432.586 396V393.06C436.04 393.06 438.42 392.36 439.726 390.96C441.126 389.467 441.826 386.807 441.826 382.98V342.52C441.826 338.973 441.593 336.127 441.126 333.98C440.753 331.74 439.773 329.92 438.186 328.52C436.693 327.12 434.36 326.42 431.186 326.42C427.64 326.42 424.42 327.54 421.526 329.78C418.633 332.02 416.346 335.1 414.666 339.02C413.08 342.94 412.286 347.233 412.286 351.9V382.98C412.286 386.807 412.94 389.467 414.246 390.96C415.646 392.36 418.073 393.06 421.526 393.06V396C413.686 395.627 408.46 395.44 405.846 395.44C403.233 395.44 397.633 395.627 389.046 396V393.06C392.966 393.06 395.72 392.36 397.306 390.96C398.893 389.467 399.686 386.807 399.686 382.98V339.16C399.686 334.867 398.893 331.74 397.306 329.78C395.72 327.82 392.966 326.84 389.046 326.84V323.9C392.033 324.18 394.926 324.32 397.726 324.32C403.606 324.32 408.46 323.667 412.286 322.36V338.88C414.526 333.093 417.7 328.847 421.806 326.14C425.913 323.34 430.393 321.94 435.246 321.94C441.593 321.94 446.446 323.713 449.806 327.26C452.14 329.687 453.586 333.42 454.146 338.46C456.48 332.58 459.7 328.38 463.806 325.86C467.913 323.247 472.44 321.94 477.386 321.94C483.733 321.94 488.586 323.713 491.946 327.26C493.626 329.127 494.793 331.507 495.446 334.4C496.193 337.293 496.566 341.027 496.566 345.6V382.98ZM529.284 288.9C531.71 288.9 533.81 289.787 535.584 291.56C537.357 293.333 538.244 295.433 538.244 297.86C538.244 300.287 537.357 302.387 535.584 304.16C533.81 305.933 531.71 306.82 529.284 306.82C526.857 306.82 524.757 305.933 522.984 304.16C521.21 302.387 520.324 300.287 520.324 297.86C520.324 295.433 521.21 293.333 522.984 291.56C524.757 289.787 526.857 288.9 529.284 288.9ZM536.564 382.98C536.564 386.807 537.357 389.467 538.944 390.96C540.53 392.36 543.284 393.06 547.204 393.06V396C538.617 395.627 532.97 395.44 530.264 395.44C527.557 395.44 521.91 395.627 513.324 396V393.06C517.244 393.06 519.997 392.36 521.584 390.96C523.17 389.467 523.964 386.807 523.964 382.98V339.16C523.964 334.867 523.17 331.74 521.584 329.78C519.997 327.82 517.244 326.84 513.324 326.84V323.9C516.31 324.18 519.204 324.32 522.004 324.32C527.884 324.32 532.737 323.667 536.564 322.36V382.98ZM601.379 321.94C607.913 321.94 612.859 323.713 616.219 327.26C617.993 329.127 619.253 331.46 619.999 334.26C620.746 337.06 621.119 340.84 621.119 345.6V382.98C621.119 386.807 621.913 389.467 623.499 390.96C625.086 392.36 627.839 393.06 631.759 393.06V396C623.173 395.627 617.573 395.44 614.959 395.44C612.346 395.44 607.119 395.627 599.279 396V393.06C602.733 393.06 605.113 392.36 606.419 390.96C607.819 389.467 608.519 386.807 608.519 382.98V342.52C608.519 337.293 607.773 333.327 606.279 330.62C604.786 327.82 601.753 326.42 597.179 326.42C593.353 326.42 589.946 327.54 586.959 329.78C583.973 332.02 581.639 335.1 579.959 339.02C578.373 342.847 577.579 347.14 577.579 351.9V382.98C577.579 386.807 578.233 389.467 579.539 390.96C580.939 392.36 583.366 393.06 586.819 393.06V396C578.979 395.627 573.753 395.44 571.139 395.44C568.526 395.44 562.926 395.627 554.339 396V393.06C558.259 393.06 561.013 392.36 562.599 390.96C564.186 389.467 564.979 386.807 564.979 382.98V339.16C564.979 334.867 564.186 331.74 562.599 329.78C561.013 327.82 558.259 326.84 554.339 326.84V323.9C557.326 324.18 560.219 324.32 563.019 324.32C568.899 324.32 573.753 323.667 577.579 322.36V338.88C579.913 332.907 583.133 328.613 587.239 326C591.439 323.293 596.153 321.94 601.379 321.94ZM653.834 288.9C656.261 288.9 658.361 289.787 660.134 291.56C661.908 293.333 662.794 295.433 662.794 297.86C662.794 300.287 661.908 302.387 660.134 304.16C658.361 305.933 656.261 306.82 653.834 306.82C651.408 306.82 649.308 305.933 647.534 304.16C645.761 302.387 644.874 300.287 644.874 297.86C644.874 295.433 645.761 293.333 647.534 291.56C649.308 289.787 651.408 288.9 653.834 288.9ZM661.114 382.98C661.114 386.807 661.908 389.467 663.494 390.96C665.081 392.36 667.834 393.06 671.754 393.06V396C663.168 395.627 657.521 395.44 654.814 395.44C652.108 395.44 646.461 395.627 637.874 396V393.06C641.794 393.06 644.548 392.36 646.134 390.96C647.721 389.467 648.514 386.807 648.514 382.98V339.16C648.514 334.867 647.721 331.74 646.134 329.78C644.548 327.82 641.794 326.84 637.874 326.84V323.9C640.861 324.18 643.754 324.32 646.554 324.32C652.434 324.32 657.288 323.667 661.114 322.36V382.98ZM703.95 321.94C707.31 321.94 710.297 322.453 712.91 323.48C715.523 324.507 717.623 325.72 719.21 327.12C720.237 327.867 721.077 328.24 721.73 328.24C723.41 328.24 724.437 326.187 724.81 322.08H728.03C727.657 326.653 727.47 334.587 727.47 345.88H724.25C723.223 339.72 721.217 334.633 718.23 330.62C715.337 326.607 710.997 324.6 705.21 324.6C701.85 324.6 699.097 325.58 696.95 327.54C694.803 329.407 693.73 332.02 693.73 335.38C693.73 338.647 694.85 341.4 697.09 343.64C699.33 345.787 702.923 348.4 707.87 351.48C708.71 351.947 709.97 352.74 711.65 353.86C715.943 356.66 719.397 359.133 722.01 361.28C724.623 363.427 726.723 365.9 728.31 368.7C729.99 371.5 730.83 374.72 730.83 378.36C730.83 384.52 728.497 389.327 723.83 392.78C719.257 396.233 713.61 397.96 706.89 397.96C702.69 397.96 699.003 397.307 695.83 396C693.777 394.973 691.863 393.713 690.09 392.22C689.717 391.847 689.297 391.66 688.83 391.66C688.177 391.66 687.57 392.127 687.01 393.06C686.543 393.993 686.17 395.3 685.89 396.98H682.67C683.043 391.66 683.23 382.327 683.23 368.98H686.45C687.477 377.753 689.343 384.333 692.05 388.72C694.757 393.013 699.377 395.16 705.91 395.16C709.177 395.16 712.07 394.087 714.59 391.94C717.11 389.793 718.37 386.433 718.37 381.86C718.37 378.22 717.11 375.14 714.59 372.62C712.163 370.1 708.15 367.067 702.55 363.52C697.977 360.627 694.43 358.247 691.91 356.38C689.483 354.513 687.43 352.227 685.75 349.52C684.07 346.813 683.23 343.64 683.23 340C683.23 334.12 685.19 329.64 689.11 326.56C693.03 323.48 697.977 321.94 703.95 321.94ZM764.047 324.04H784.767V326.84H764.047V381.02C764.047 385.22 764.794 388.253 766.287 390.12C767.874 391.987 770.114 392.92 773.007 392.92C775.901 392.92 778.374 391.753 780.427 389.42C782.481 387.087 784.207 383.26 785.607 377.94L788.407 378.64C786.074 391.52 780.007 397.96 770.207 397.96C767.034 397.96 764.421 397.587 762.367 396.84C760.314 396.093 758.494 394.927 756.907 393.34C754.854 391.287 753.407 388.767 752.567 385.78C751.821 382.793 751.447 378.78 751.447 373.74V326.84H738.007V324.04H751.447V302.62C756.674 302.433 760.874 301.78 764.047 300.66V324.04ZM834.539 321.94C838.273 321.94 841.306 323.013 843.639 325.16C846.066 327.307 847.279 329.92 847.279 333C847.279 335.427 846.533 337.527 845.039 339.3C843.639 340.98 841.726 341.82 839.299 341.82C837.246 341.82 835.473 341.167 833.979 339.86C832.579 338.553 831.879 336.78 831.879 334.54C831.879 331.46 833.466 328.94 836.639 326.98C835.986 326.047 835.006 325.58 833.699 325.58C830.059 325.58 826.746 327.027 823.759 329.92C820.773 332.72 818.439 336.173 816.759 340.28C815.079 344.387 814.239 348.26 814.239 351.9V381.58C814.239 385.873 815.453 388.86 817.879 390.54C820.399 392.22 824.133 393.06 829.079 393.06V396L825.719 395.86C816.199 395.58 810.133 395.44 807.519 395.44C805.093 395.44 799.586 395.627 790.999 396V393.06C794.919 393.06 797.673 392.36 799.259 390.96C800.846 389.467 801.639 386.807 801.639 382.98V339.16C801.639 334.867 800.846 331.74 799.259 329.78C797.673 327.82 794.919 326.84 790.999 326.84V323.9C793.986 324.18 796.879 324.32 799.679 324.32C805.559 324.32 810.413 323.667 814.239 322.36V339.86C815.919 335.193 818.579 331.04 822.219 327.4C825.953 323.76 830.059 321.94 834.539 321.94ZM872.103 396.98C866.223 396.98 861.837 395.533 858.943 392.64C856.143 389.653 854.743 385.547 854.743 380.32C854.743 376.12 855.863 372.667 858.103 369.96C860.437 367.253 863.143 365.107 866.223 363.52C869.397 361.933 873.55 360.253 878.683 358.48C883.91 356.707 887.783 355.073 890.303 353.58C892.823 352.087 894.083 350.08 894.083 347.56V338.88C894.083 333.467 892.917 329.78 890.583 327.82C888.343 325.767 885.17 324.74 881.063 324.74C874.53 324.74 869.91 326.42 867.203 329.78C869.07 330.247 870.61 331.227 871.823 332.72C873.13 334.213 873.783 336.08 873.783 338.32C873.783 340.653 873.037 342.52 871.543 343.92C870.05 345.227 868.137 345.88 865.803 345.88C863.19 345.88 861.23 345.087 859.923 343.5C858.617 341.82 857.963 339.813 857.963 337.48C857.963 335.24 858.477 333.373 859.503 331.88C860.623 330.387 862.257 328.893 864.403 327.4C866.643 325.813 869.49 324.507 872.943 323.48C876.397 322.453 880.177 321.94 884.283 321.94C891.563 321.94 897.07 323.667 900.803 327.12C903.137 329.267 904.677 331.88 905.423 334.96C906.263 337.947 906.683 341.913 906.683 346.86V385.78C906.683 388.113 907.01 389.793 907.663 390.82C908.317 391.847 909.437 392.36 911.023 392.36C912.143 392.36 913.17 392.127 914.103 391.66C915.13 391.1 916.203 390.353 917.323 389.42L918.863 391.8C916.437 393.667 914.337 395.02 912.563 395.86C910.883 396.607 908.737 396.98 906.123 396.98C901.643 396.98 898.517 395.86 896.743 393.62C894.97 391.38 894.083 388.347 894.083 384.52C891.283 389.187 888.063 392.453 884.423 394.32C880.783 396.093 876.677 396.98 872.103 396.98ZM878.263 391.38C884.423 391.38 889.697 387.833 894.083 380.74V353.3C893.243 354.607 892.077 355.68 890.583 356.52C889.09 357.36 886.803 358.48 883.723 359.88C880.177 361.373 877.283 362.82 875.043 364.22C872.897 365.527 871.03 367.347 869.443 369.68C867.857 372.013 867.063 375 867.063 378.64C867.063 382.84 868.09 386.013 870.143 388.16C872.197 390.307 874.903 391.38 878.263 391.38ZM945.61 324.04H966.33V326.84H945.61V381.02C945.61 385.22 946.356 388.253 947.85 390.12C949.436 391.987 951.676 392.92 954.57 392.92C957.463 392.92 959.936 391.753 961.99 389.42C964.043 387.087 965.77 383.26 967.17 377.94L969.97 378.64C967.636 391.52 961.57 397.96 951.77 397.96C948.596 397.96 945.983 397.587 943.93 396.84C941.876 396.093 940.056 394.927 938.47 393.34C936.416 391.287 934.97 388.767 934.13 385.78C933.383 382.793 933.01 378.78 933.01 373.74V326.84H919.57V324.04H933.01V302.62C938.236 302.433 942.436 301.78 945.61 300.66V324.04ZM1006.86 321.94C1016.38 321.94 1024.04 325.113 1029.82 331.46C1035.7 337.713 1038.64 347.233 1038.64 360.02C1038.64 372.807 1035.7 382.327 1029.82 388.58C1024.04 394.833 1016.38 397.96 1006.86 397.96C997.342 397.96 989.642 394.833 983.762 388.58C977.975 382.327 975.082 372.807 975.082 360.02C975.082 347.233 977.975 337.713 983.762 331.46C989.642 325.113 997.342 321.94 1006.86 321.94ZM1006.86 324.74C1001.26 324.74 996.829 327.633 993.562 333.42C990.295 339.113 988.662 347.98 988.662 360.02C988.662 372.06 990.295 380.927 993.562 386.62C996.829 392.313 1001.26 395.16 1006.86 395.16C1012.46 395.16 1016.9 392.313 1020.16 386.62C1023.43 380.927 1025.06 372.06 1025.06 360.02C1025.06 347.98 1023.43 339.113 1020.16 333.42C1016.9 327.633 1012.46 324.74 1006.86 324.74ZM1092.8 321.94C1096.53 321.94 1099.57 323.013 1101.9 325.16C1104.33 327.307 1105.54 329.92 1105.54 333C1105.54 335.427 1104.79 337.527 1103.3 339.3C1101.9 340.98 1099.99 341.82 1097.56 341.82C1095.51 341.82 1093.73 341.167 1092.24 339.86C1090.84 338.553 1090.14 336.78 1090.14 334.54C1090.14 331.46 1091.73 328.94 1094.9 326.98C1094.25 326.047 1093.27 325.58 1091.96 325.58C1088.32 325.58 1085.01 327.027 1082.02 329.92C1079.03 332.72 1076.7 336.173 1075.02 340.28C1073.34 344.387 1072.5 348.26 1072.5 351.9V381.58C1072.5 385.873 1073.71 388.86 1076.14 390.54C1078.66 392.22 1082.39 393.06 1087.34 393.06V396L1083.98 395.86C1074.46 395.58 1068.39 395.44 1065.78 395.44C1063.35 395.44 1057.85 395.627 1049.26 396V393.06C1053.18 393.06 1055.93 392.36 1057.52 390.96C1059.11 389.467 1059.9 386.807 1059.9 382.98V339.16C1059.9 334.867 1059.11 331.74 1057.52 329.78C1055.93 327.82 1053.18 326.84 1049.26 326.84V323.9C1052.25 324.18 1055.14 324.32 1057.94 324.32C1063.82 324.32 1068.67 323.667 1072.5 322.36V339.86C1074.18 335.193 1076.84 331.04 1080.48 327.4C1084.21 323.76 1088.32 321.94 1092.8 321.94Z" fill="white"/>
<rect x="67" y="619" width="1196" height="67" fill="#D56B38"/>
<path d="M579.666 478H577.905V454.655H569.788V453.015H587.783V454.655H579.666V478ZM602.361 478L601.934 475.061H601.797C600.863 476.257 599.9 477.106 598.909 477.607C597.929 478.097 596.767 478.342 595.422 478.342C593.599 478.342 592.181 477.875 591.167 476.94C590.153 476.006 589.646 474.713 589.646 473.061C589.646 471.25 590.398 469.842 591.902 468.84C593.417 467.837 595.605 467.307 598.464 467.25L602.002 467.148V465.917C602.002 464.152 601.643 462.819 600.925 461.918C600.208 461.018 599.051 460.568 597.456 460.568C595.736 460.568 593.953 461.047 592.107 462.004L591.475 460.534C593.514 459.577 595.531 459.099 597.524 459.099C599.564 459.099 601.085 459.628 602.087 460.688C603.101 461.748 603.608 463.4 603.608 465.644V478H602.361ZM595.525 476.804C597.507 476.804 599.068 476.24 600.208 475.112C601.358 473.972 601.934 472.395 601.934 470.378V468.549L598.687 468.686C596.077 468.811 594.215 469.222 593.098 469.917C591.993 470.6 591.44 471.671 591.44 473.129C591.44 474.292 591.794 475.197 592.5 475.847C593.218 476.485 594.226 476.804 595.525 476.804ZM617.588 478.342C614.728 478.342 612.643 477.271 611.333 475.129H611.213L611.265 476.564C611.31 477.408 611.333 478.33 611.333 479.333V486.408H609.641V459.423H611.077L611.401 462.072H611.504C612.78 460.067 614.819 459.064 617.622 459.064C620.129 459.064 622.037 459.89 623.347 461.542C624.669 463.183 625.33 465.576 625.33 468.72C625.33 471.774 624.635 474.143 623.245 475.83C621.866 477.504 619.98 478.342 617.588 478.342ZM617.554 476.838C619.456 476.838 620.926 476.132 621.963 474.719C623.011 473.306 623.535 471.329 623.535 468.789C623.535 463.331 621.564 460.603 617.622 460.603C615.457 460.603 613.868 461.201 612.854 462.397C611.84 463.582 611.333 465.519 611.333 468.208V468.754C611.333 471.66 611.817 473.733 612.786 474.975C613.765 476.217 615.355 476.838 617.554 476.838ZM646.487 460.893H642.112V478H640.42V460.893H636.968V459.902L640.42 459.27V457.834C640.42 455.555 640.836 453.886 641.667 452.827C642.511 451.756 643.883 451.22 645.786 451.22C646.812 451.22 647.837 451.374 648.862 451.682L648.469 453.151C647.558 452.867 646.652 452.724 645.752 452.724C644.43 452.724 643.49 453.117 642.932 453.903C642.385 454.678 642.112 455.943 642.112 457.697V459.423H646.487V460.893ZM665.439 468.686C665.439 471.717 664.705 474.086 663.235 475.795C661.765 477.493 659.737 478.342 657.151 478.342C655.522 478.342 654.086 477.949 652.844 477.163C651.602 476.376 650.651 475.249 649.99 473.779C649.329 472.309 648.999 470.611 648.999 468.686C648.999 465.655 649.734 463.297 651.204 461.611C652.673 459.913 654.69 459.064 657.253 459.064C659.806 459.064 661.805 459.925 663.252 461.645C664.71 463.354 665.439 465.701 665.439 468.686ZM650.776 468.686C650.776 471.238 651.335 473.232 652.451 474.667C653.579 476.092 655.168 476.804 657.219 476.804C659.27 476.804 660.854 476.092 661.97 474.667C663.098 473.232 663.662 471.238 663.662 468.686C663.662 466.123 663.092 464.134 661.953 462.722C660.825 461.309 659.236 460.603 657.185 460.603C655.134 460.603 653.551 461.309 652.434 462.722C651.329 464.123 650.776 466.111 650.776 468.686ZM677.898 459.064C678.684 459.064 679.527 459.144 680.427 459.304L680.103 460.927C679.328 460.734 678.525 460.637 677.693 460.637C676.109 460.637 674.81 461.309 673.796 462.653C672.782 463.998 672.275 465.695 672.275 467.746V478H670.583V459.423H672.019L672.19 462.773H672.31C673.073 461.406 673.888 460.449 674.753 459.902C675.619 459.344 676.667 459.064 677.898 459.064ZM706.267 478V465.952C706.267 464.083 705.874 462.727 705.088 461.884C704.302 461.03 703.083 460.603 701.431 460.603C699.209 460.603 697.58 461.167 696.543 462.294C695.518 463.411 695.005 465.228 695.005 467.746V478H693.313V459.423H694.749L695.073 461.97H695.176C696.383 460.033 698.531 459.064 701.619 459.064C705.834 459.064 707.942 461.326 707.942 465.849V478H706.267ZM721.46 478.342C718.76 478.342 716.652 477.51 715.137 475.847C713.633 474.183 712.881 471.853 712.881 468.857C712.881 465.895 713.61 463.525 715.068 461.748C716.527 459.959 718.492 459.064 720.964 459.064C723.152 459.064 724.878 459.828 726.143 461.354C727.407 462.881 728.04 464.955 728.04 467.575V468.942H714.658C714.681 471.494 715.273 473.443 716.436 474.787C717.609 476.132 719.284 476.804 721.46 476.804C722.52 476.804 723.448 476.73 724.246 476.582C725.055 476.433 726.074 476.114 727.305 475.625V477.163C726.257 477.618 725.288 477.926 724.399 478.085C723.511 478.256 722.531 478.342 721.46 478.342ZM720.964 460.568C719.176 460.568 717.74 461.161 716.658 462.346C715.575 463.519 714.943 465.217 714.761 467.438H726.245C726.245 465.285 725.778 463.605 724.844 462.397C723.91 461.178 722.616 460.568 720.964 460.568ZM748.018 478L743.95 465.576C743.688 464.733 743.352 463.496 742.942 461.867H742.839L742.48 463.132L741.711 465.61L737.576 478H735.901L730.586 459.423H732.397L735.371 470.19C736.066 472.856 736.522 474.816 736.738 476.069H736.841C737.513 473.403 738.003 471.631 738.311 470.754L742.139 459.423H743.677L747.317 470.72C748.137 473.397 748.639 475.169 748.821 476.035H748.923C749.014 475.294 749.47 473.312 750.291 470.087L753.127 459.423H754.836L749.795 478H748.018Z" fill="white"/>
<path d="M569.617 481.503H755.366V483.247H569.617V481.503Z" fill="white"/>
<rect x="57" y="58" width="1211" height="634" rx="24" stroke="white" stroke-width="20"/>
</svg>
