<svg width="1334" height="750" viewBox="0 0 1334 750" fill="none" xmlns="http://www.w3.org/2000/svg">
<rect x="57" y="58" width="1211" height="634" rx="24" fill="#15364F" stroke="white" stroke-width="20"/>
<path d="M294.835 416.24C297.075 422.027 300.295 425.013 304.495 425.2V428C300.762 427.72 295.768 427.58 289.515 427.58C281.488 427.58 275.515 427.72 271.595 428V425.2C275.142 425.013 277.662 424.593 279.155 423.94C280.742 423.193 281.535 421.887 281.535 420.02C281.535 418.433 280.975 416.24 279.855 413.44L271.315 390.48H237.435L231.695 405.32C229.828 410.36 228.895 414.187 228.895 416.8C228.895 419.693 229.875 421.793 231.835 423.1C233.888 424.407 236.968 425.107 241.075 425.2V428C235.755 427.72 230.388 427.58 224.975 427.58C220.775 427.58 217.275 427.72 214.475 428V425.2C219.142 424.08 222.828 420.02 225.535 413.02L258.435 328.18H260.675L294.835 416.24ZM270.195 387.68L254.515 345.82L238.555 387.68H270.195ZM371.399 412.74C371.399 417.033 372.192 420.16 373.779 422.12C375.365 424.08 378.119 425.06 382.039 425.06V428C379.145 427.72 376.252 427.58 373.359 427.58C367.479 427.58 362.625 428.233 358.799 429.54V417.08C357.119 421.28 354.599 424.5 351.239 426.74C347.879 428.887 343.772 429.96 338.919 429.96C329.959 429.96 322.912 426.74 317.779 420.3C312.739 413.86 310.265 404.433 310.359 392.02C310.359 383.9 311.759 376.993 314.559 371.3C317.452 365.513 321.279 361.173 326.039 358.28C330.892 355.387 336.212 353.94 341.999 353.94C345.545 353.94 348.765 354.64 351.659 356.04C354.645 357.347 357.025 359.4 358.799 362.2V335.04C358.799 330.747 358.005 327.62 356.419 325.66C354.832 323.7 352.079 322.72 348.159 322.72V319.78C351.145 320.06 354.039 320.2 356.839 320.2C362.719 320.2 367.572 319.547 371.399 318.24V412.74ZM342.979 425.76C346.619 425.76 349.885 424.36 352.779 421.56C355.672 418.76 357.679 414.793 358.799 409.66V367.94C356.279 360.753 351.052 357.16 343.119 357.16C337.332 357.16 332.665 360.147 329.119 366.12C325.572 372 323.845 380.633 323.939 392.02C323.845 403.22 325.432 411.667 328.699 417.36C331.965 422.96 336.725 425.76 342.979 425.76ZM496.566 414.98C496.566 418.807 497.36 421.467 498.946 422.96C500.533 424.36 503.286 425.06 507.206 425.06V428C498.62 427.627 493.02 427.44 490.406 427.44C487.793 427.44 482.566 427.627 474.726 428V425.06C478.18 425.06 480.56 424.36 481.866 422.96C483.266 421.467 483.966 418.807 483.966 414.98V374.52C483.966 370.973 483.733 368.127 483.266 365.98C482.893 363.74 481.913 361.92 480.326 360.52C478.833 359.12 476.5 358.42 473.326 358.42C469.78 358.42 466.56 359.54 463.666 361.78C460.773 364.02 458.486 367.1 456.806 371.02C455.22 374.847 454.426 379.093 454.426 383.76V414.98C454.426 418.807 455.22 421.467 456.806 422.96C458.393 424.36 461.146 425.06 465.066 425.06V428C456.48 427.627 450.88 427.44 448.266 427.44C445.653 427.44 440.426 427.627 432.586 428V425.06C436.04 425.06 438.42 424.36 439.726 422.96C441.126 421.467 441.826 418.807 441.826 414.98V374.52C441.826 370.973 441.593 368.127 441.126 365.98C440.753 363.74 439.773 361.92 438.186 360.52C436.693 359.12 434.36 358.42 431.186 358.42C427.64 358.42 424.42 359.54 421.526 361.78C418.633 364.02 416.346 367.1 414.666 371.02C413.08 374.94 412.286 379.233 412.286 383.9V414.98C412.286 418.807 412.94 421.467 414.246 422.96C415.646 424.36 418.073 425.06 421.526 425.06V428C413.686 427.627 408.46 427.44 405.846 427.44C403.233 427.44 397.633 427.627 389.046 428V425.06C392.966 425.06 395.72 424.36 397.306 422.96C398.893 421.467 399.686 418.807 399.686 414.98V371.16C399.686 366.867 398.893 363.74 397.306 361.78C395.72 359.82 392.966 358.84 389.046 358.84V355.9C392.033 356.18 394.926 356.32 397.726 356.32C403.606 356.32 408.46 355.667 412.286 354.36V370.88C414.526 365.093 417.7 360.847 421.806 358.14C425.913 355.34 430.393 353.94 435.246 353.94C441.593 353.94 446.446 355.713 449.806 359.26C452.14 361.687 453.586 365.42 454.146 370.46C456.48 364.58 459.7 360.38 463.806 357.86C467.913 355.247 472.44 353.94 477.386 353.94C483.733 353.94 488.586 355.713 491.946 359.26C493.626 361.127 494.793 363.507 495.446 366.4C496.193 369.293 496.566 373.027 496.566 377.6V414.98ZM529.284 320.9C531.71 320.9 533.81 321.787 535.584 323.56C537.357 325.333 538.244 327.433 538.244 329.86C538.244 332.287 537.357 334.387 535.584 336.16C533.81 337.933 531.71 338.82 529.284 338.82C526.857 338.82 524.757 337.933 522.984 336.16C521.21 334.387 520.324 332.287 520.324 329.86C520.324 327.433 521.21 325.333 522.984 323.56C524.757 321.787 526.857 320.9 529.284 320.9ZM536.564 414.98C536.564 418.807 537.357 421.467 538.944 422.96C540.53 424.36 543.284 425.06 547.204 425.06V428C538.617 427.627 532.97 427.44 530.264 427.44C527.557 427.44 521.91 427.627 513.324 428V425.06C517.244 425.06 519.997 424.36 521.584 422.96C523.17 421.467 523.964 418.807 523.964 414.98V371.16C523.964 366.867 523.17 363.74 521.584 361.78C519.997 359.82 517.244 358.84 513.324 358.84V355.9C516.31 356.18 519.204 356.32 522.004 356.32C527.884 356.32 532.737 355.667 536.564 354.36V414.98ZM601.379 353.94C607.913 353.94 612.859 355.713 616.219 359.26C617.993 361.127 619.253 363.46 619.999 366.26C620.746 369.06 621.119 372.84 621.119 377.6V414.98C621.119 418.807 621.913 421.467 623.499 422.96C625.086 424.36 627.839 425.06 631.759 425.06V428C623.173 427.627 617.573 427.44 614.959 427.44C612.346 427.44 607.119 427.627 599.279 428V425.06C602.733 425.06 605.113 424.36 606.419 422.96C607.819 421.467 608.519 418.807 608.519 414.98V374.52C608.519 369.293 607.773 365.327 606.279 362.62C604.786 359.82 601.753 358.42 597.179 358.42C593.353 358.42 589.946 359.54 586.959 361.78C583.973 364.02 581.639 367.1 579.959 371.02C578.373 374.847 577.579 379.14 577.579 383.9V414.98C577.579 418.807 578.233 421.467 579.539 422.96C580.939 424.36 583.366 425.06 586.819 425.06V428C578.979 427.627 573.753 427.44 571.139 427.44C568.526 427.44 562.926 427.627 554.339 428V425.06C558.259 425.06 561.013 424.36 562.599 422.96C564.186 421.467 564.979 418.807 564.979 414.98V371.16C564.979 366.867 564.186 363.74 562.599 361.78C561.013 359.82 558.259 358.84 554.339 358.84V355.9C557.326 356.18 560.219 356.32 563.019 356.32C568.899 356.32 573.753 355.667 577.579 354.36V370.88C579.913 364.907 583.133 360.613 587.239 358C591.439 355.293 596.153 353.94 601.379 353.94ZM653.834 320.9C656.261 320.9 658.361 321.787 660.134 323.56C661.908 325.333 662.794 327.433 662.794 329.86C662.794 332.287 661.908 334.387 660.134 336.16C658.361 337.933 656.261 338.82 653.834 338.82C651.408 338.82 649.308 337.933 647.534 336.16C645.761 334.387 644.874 332.287 644.874 329.86C644.874 327.433 645.761 325.333 647.534 323.56C649.308 321.787 651.408 320.9 653.834 320.9ZM661.114 414.98C661.114 418.807 661.908 421.467 663.494 422.96C665.081 424.36 667.834 425.06 671.754 425.06V428C663.168 427.627 657.521 427.44 654.814 427.44C652.108 427.44 646.461 427.627 637.874 428V425.06C641.794 425.06 644.548 424.36 646.134 422.96C647.721 421.467 648.514 418.807 648.514 414.98V371.16C648.514 366.867 647.721 363.74 646.134 361.78C644.548 359.82 641.794 358.84 637.874 358.84V355.9C640.861 356.18 643.754 356.32 646.554 356.32C652.434 356.32 657.288 355.667 661.114 354.36V414.98ZM703.95 353.94C707.31 353.94 710.297 354.453 712.91 355.48C715.523 356.507 717.623 357.72 719.21 359.12C720.237 359.867 721.077 360.24 721.73 360.24C723.41 360.24 724.437 358.187 724.81 354.08H728.03C727.657 358.653 727.47 366.587 727.47 377.88H724.25C723.223 371.72 721.217 366.633 718.23 362.62C715.337 358.607 710.997 356.6 705.21 356.6C701.85 356.6 699.097 357.58 696.95 359.54C694.803 361.407 693.73 364.02 693.73 367.38C693.73 370.647 694.85 373.4 697.09 375.64C699.33 377.787 702.923 380.4 707.87 383.48C708.71 383.947 709.97 384.74 711.65 385.86C715.943 388.66 719.397 391.133 722.01 393.28C724.623 395.427 726.723 397.9 728.31 400.7C729.99 403.5 730.83 406.72 730.83 410.36C730.83 416.52 728.497 421.327 723.83 424.78C719.257 428.233 713.61 429.96 706.89 429.96C702.69 429.96 699.003 429.307 695.83 428C693.777 426.973 691.863 425.713 690.09 424.22C689.717 423.847 689.297 423.66 688.83 423.66C688.177 423.66 687.57 424.127 687.01 425.06C686.543 425.993 686.17 427.3 685.89 428.98H682.67C683.043 423.66 683.23 414.327 683.23 400.98H686.45C687.477 409.753 689.343 416.333 692.05 420.72C694.757 425.013 699.377 427.16 705.91 427.16C709.177 427.16 712.07 426.087 714.59 423.94C717.11 421.793 718.37 418.433 718.37 413.86C718.37 410.22 717.11 407.14 714.59 404.62C712.163 402.1 708.15 399.067 702.55 395.52C697.977 392.627 694.43 390.247 691.91 388.38C689.483 386.513 687.43 384.227 685.75 381.52C684.07 378.813 683.23 375.64 683.23 372C683.23 366.12 685.19 361.64 689.11 358.56C693.03 355.48 697.977 353.94 703.95 353.94ZM764.047 356.04H784.767V358.84H764.047V413.02C764.047 417.22 764.794 420.253 766.287 422.12C767.874 423.987 770.114 424.92 773.007 424.92C775.901 424.92 778.374 423.753 780.427 421.42C782.481 419.087 784.207 415.26 785.607 409.94L788.407 410.64C786.074 423.52 780.007 429.96 770.207 429.96C767.034 429.96 764.421 429.587 762.367 428.84C760.314 428.093 758.494 426.927 756.907 425.34C754.854 423.287 753.407 420.767 752.567 417.78C751.821 414.793 751.447 410.78 751.447 405.74V358.84H738.007V356.04H751.447V334.62C756.674 334.433 760.874 333.78 764.047 332.66V356.04ZM834.539 353.94C838.273 353.94 841.306 355.013 843.639 357.16C846.066 359.307 847.279 361.92 847.279 365C847.279 367.427 846.533 369.527 845.039 371.3C843.639 372.98 841.726 373.82 839.299 373.82C837.246 373.82 835.473 373.167 833.979 371.86C832.579 370.553 831.879 368.78 831.879 366.54C831.879 363.46 833.466 360.94 836.639 358.98C835.986 358.047 835.006 357.58 833.699 357.58C830.059 357.58 826.746 359.027 823.759 361.92C820.773 364.72 818.439 368.173 816.759 372.28C815.079 376.387 814.239 380.26 814.239 383.9V413.58C814.239 417.873 815.453 420.86 817.879 422.54C820.399 424.22 824.133 425.06 829.079 425.06V428L825.719 427.86C816.199 427.58 810.133 427.44 807.519 427.44C805.093 427.44 799.586 427.627 790.999 428V425.06C794.919 425.06 797.673 424.36 799.259 422.96C800.846 421.467 801.639 418.807 801.639 414.98V371.16C801.639 366.867 800.846 363.74 799.259 361.78C797.673 359.82 794.919 358.84 790.999 358.84V355.9C793.986 356.18 796.879 356.32 799.679 356.32C805.559 356.32 810.413 355.667 814.239 354.36V371.86C815.919 367.193 818.579 363.04 822.219 359.4C825.953 355.76 830.059 353.94 834.539 353.94ZM872.103 428.98C866.223 428.98 861.837 427.533 858.943 424.64C856.143 421.653 854.743 417.547 854.743 412.32C854.743 408.12 855.863 404.667 858.103 401.96C860.437 399.253 863.143 397.107 866.223 395.52C869.397 393.933 873.55 392.253 878.683 390.48C883.91 388.707 887.783 387.073 890.303 385.58C892.823 384.087 894.083 382.08 894.083 379.56V370.88C894.083 365.467 892.917 361.78 890.583 359.82C888.343 357.767 885.17 356.74 881.063 356.74C874.53 356.74 869.91 358.42 867.203 361.78C869.07 362.247 870.61 363.227 871.823 364.72C873.13 366.213 873.783 368.08 873.783 370.32C873.783 372.653 873.037 374.52 871.543 375.92C870.05 377.227 868.137 377.88 865.803 377.88C863.19 377.88 861.23 377.087 859.923 375.5C858.617 373.82 857.963 371.813 857.963 369.48C857.963 367.24 858.477 365.373 859.503 363.88C860.623 362.387 862.257 360.893 864.403 359.4C866.643 357.813 869.49 356.507 872.943 355.48C876.397 354.453 880.177 353.94 884.283 353.94C891.563 353.94 897.07 355.667 900.803 359.12C903.137 361.267 904.677 363.88 905.423 366.96C906.263 369.947 906.683 373.913 906.683 378.86V417.78C906.683 420.113 907.01 421.793 907.663 422.82C908.317 423.847 909.437 424.36 911.023 424.36C912.143 424.36 913.17 424.127 914.103 423.66C915.13 423.1 916.203 422.353 917.323 421.42L918.863 423.8C916.437 425.667 914.337 427.02 912.563 427.86C910.883 428.607 908.737 428.98 906.123 428.98C901.643 428.98 898.517 427.86 896.743 425.62C894.97 423.38 894.083 420.347 894.083 416.52C891.283 421.187 888.063 424.453 884.423 426.32C880.783 428.093 876.677 428.98 872.103 428.98ZM878.263 423.38C884.423 423.38 889.697 419.833 894.083 412.74V385.3C893.243 386.607 892.077 387.68 890.583 388.52C889.09 389.36 886.803 390.48 883.723 391.88C880.177 393.373 877.283 394.82 875.043 396.22C872.897 397.527 871.03 399.347 869.443 401.68C867.857 404.013 867.063 407 867.063 410.64C867.063 414.84 868.09 418.013 870.143 420.16C872.197 422.307 874.903 423.38 878.263 423.38ZM945.61 356.04H966.33V358.84H945.61V413.02C945.61 417.22 946.356 420.253 947.85 422.12C949.436 423.987 951.676 424.92 954.57 424.92C957.463 424.92 959.936 423.753 961.99 421.42C964.043 419.087 965.77 415.26 967.17 409.94L969.97 410.64C967.636 423.52 961.57 429.96 951.77 429.96C948.596 429.96 945.983 429.587 943.93 428.84C941.876 428.093 940.056 426.927 938.47 425.34C936.416 423.287 934.97 420.767 934.13 417.78C933.383 414.793 933.01 410.78 933.01 405.74V358.84H919.57V356.04H933.01V334.62C938.236 334.433 942.436 333.78 945.61 332.66V356.04ZM1006.86 353.94C1016.38 353.94 1024.04 357.113 1029.82 363.46C1035.7 369.713 1038.64 379.233 1038.64 392.02C1038.64 404.807 1035.7 414.327 1029.82 420.58C1024.04 426.833 1016.38 429.96 1006.86 429.96C997.342 429.96 989.642 426.833 983.762 420.58C977.975 414.327 975.082 404.807 975.082 392.02C975.082 379.233 977.975 369.713 983.762 363.46C989.642 357.113 997.342 353.94 1006.86 353.94ZM1006.86 356.74C1001.26 356.74 996.829 359.633 993.562 365.42C990.295 371.113 988.662 379.98 988.662 392.02C988.662 404.06 990.295 412.927 993.562 418.62C996.829 424.313 1001.26 427.16 1006.86 427.16C1012.46 427.16 1016.9 424.313 1020.16 418.62C1023.43 412.927 1025.06 404.06 1025.06 392.02C1025.06 379.98 1023.43 371.113 1020.16 365.42C1016.9 359.633 1012.46 356.74 1006.86 356.74ZM1092.8 353.94C1096.53 353.94 1099.57 355.013 1101.9 357.16C1104.33 359.307 1105.54 361.92 1105.54 365C1105.54 367.427 1104.79 369.527 1103.3 371.3C1101.9 372.98 1099.99 373.82 1097.56 373.82C1095.51 373.82 1093.73 373.167 1092.24 371.86C1090.84 370.553 1090.14 368.78 1090.14 366.54C1090.14 363.46 1091.73 360.94 1094.9 358.98C1094.25 358.047 1093.27 357.58 1091.96 357.58C1088.32 357.58 1085.01 359.027 1082.02 361.92C1079.03 364.72 1076.7 368.173 1075.02 372.28C1073.34 376.387 1072.5 380.26 1072.5 383.9V413.58C1072.5 417.873 1073.71 420.86 1076.14 422.54C1078.66 424.22 1082.39 425.06 1087.34 425.06V428L1083.98 427.86C1074.46 427.58 1068.39 427.44 1065.78 427.44C1063.35 427.44 1057.85 427.627 1049.26 428V425.06C1053.18 425.06 1055.93 424.36 1057.52 422.96C1059.11 421.467 1059.9 418.807 1059.9 414.98V371.16C1059.9 366.867 1059.11 363.74 1057.52 361.78C1055.93 359.82 1053.18 358.84 1049.26 358.84V355.9C1052.25 356.18 1055.14 356.32 1057.94 356.32C1063.82 356.32 1068.67 355.667 1072.5 354.36V371.86C1074.18 367.193 1076.84 363.04 1080.48 359.4C1084.21 355.76 1088.32 353.94 1092.8 353.94Z" fill="white"/>
<rect x="67" y="619" width="1196" height="67" fill="#D56B38"/>
<path d="M579.666 510H577.905V486.655H569.788V485.015H587.783V486.655H579.666V510ZM602.361 510L601.934 507.061H601.797C600.863 508.257 599.9 509.106 598.909 509.607C597.929 510.097 596.767 510.342 595.422 510.342C593.599 510.342 592.181 509.875 591.167 508.94C590.153 508.006 589.646 506.713 589.646 505.061C589.646 503.25 590.398 501.842 591.902 500.84C593.417 499.837 595.605 499.307 598.464 499.25L602.002 499.148V497.917C602.002 496.152 601.643 494.819 600.925 493.918C600.208 493.018 599.051 492.568 597.456 492.568C595.736 492.568 593.953 493.047 592.107 494.004L591.475 492.534C593.514 491.577 595.531 491.099 597.524 491.099C599.564 491.099 601.085 491.628 602.087 492.688C603.101 493.748 603.608 495.4 603.608 497.644V510H602.361ZM595.525 508.804C597.507 508.804 599.068 508.24 600.208 507.112C601.358 505.972 601.934 504.395 601.934 502.378V500.549L598.687 500.686C596.077 500.811 594.215 501.222 593.098 501.917C591.993 502.6 591.44 503.671 591.44 505.129C591.44 506.292 591.794 507.197 592.5 507.847C593.218 508.485 594.226 508.804 595.525 508.804ZM617.588 510.342C614.728 510.342 612.643 509.271 611.333 507.129H611.213L611.265 508.564C611.31 509.408 611.333 510.33 611.333 511.333V518.408H609.641V491.423H611.077L611.401 494.072H611.504C612.78 492.067 614.819 491.064 617.622 491.064C620.129 491.064 622.037 491.89 623.347 493.542C624.669 495.183 625.33 497.576 625.33 500.72C625.33 503.774 624.635 506.143 623.245 507.83C621.866 509.504 619.98 510.342 617.588 510.342ZM617.554 508.838C619.456 508.838 620.926 508.132 621.963 506.719C623.011 505.306 623.535 503.329 623.535 500.789C623.535 495.331 621.564 492.603 617.622 492.603C615.457 492.603 613.868 493.201 612.854 494.397C611.84 495.582 611.333 497.519 611.333 500.208V500.754C611.333 503.66 611.817 505.733 612.786 506.975C613.765 508.217 615.355 508.838 617.554 508.838ZM646.487 492.893H642.112V510H640.42V492.893H636.968V491.902L640.42 491.27V489.834C640.42 487.555 640.836 485.886 641.667 484.827C642.511 483.756 643.883 483.22 645.786 483.22C646.812 483.22 647.837 483.374 648.862 483.682L648.469 485.151C647.558 484.867 646.652 484.724 645.752 484.724C644.43 484.724 643.49 485.117 642.932 485.903C642.385 486.678 642.112 487.943 642.112 489.697V491.423H646.487V492.893ZM665.439 500.686C665.439 503.717 664.705 506.086 663.235 507.795C661.765 509.493 659.737 510.342 657.151 510.342C655.522 510.342 654.086 509.949 652.844 509.163C651.602 508.376 650.651 507.249 649.99 505.779C649.329 504.309 648.999 502.611 648.999 500.686C648.999 497.655 649.734 495.297 651.204 493.611C652.673 491.913 654.69 491.064 657.253 491.064C659.806 491.064 661.805 491.925 663.252 493.645C664.71 495.354 665.439 497.701 665.439 500.686ZM650.776 500.686C650.776 503.238 651.335 505.232 652.451 506.667C653.579 508.092 655.168 508.804 657.219 508.804C659.27 508.804 660.854 508.092 661.97 506.667C663.098 505.232 663.662 503.238 663.662 500.686C663.662 498.123 663.092 496.134 661.953 494.722C660.825 493.309 659.236 492.603 657.185 492.603C655.134 492.603 653.551 493.309 652.434 494.722C651.329 496.123 650.776 498.111 650.776 500.686ZM677.898 491.064C678.684 491.064 679.527 491.144 680.427 491.304L680.103 492.927C679.328 492.734 678.525 492.637 677.693 492.637C676.109 492.637 674.81 493.309 673.796 494.653C672.782 495.998 672.275 497.695 672.275 499.746V510H670.583V491.423H672.019L672.19 494.773H672.31C673.073 493.406 673.888 492.449 674.753 491.902C675.619 491.344 676.667 491.064 677.898 491.064ZM706.267 510V497.952C706.267 496.083 705.874 494.727 705.088 493.884C704.302 493.03 703.083 492.603 701.431 492.603C699.209 492.603 697.58 493.167 696.543 494.294C695.518 495.411 695.005 497.228 695.005 499.746V510H693.313V491.423H694.749L695.073 493.97H695.176C696.383 492.033 698.531 491.064 701.619 491.064C705.834 491.064 707.942 493.326 707.942 497.849V510H706.267ZM721.46 510.342C718.76 510.342 716.652 509.51 715.137 507.847C713.633 506.183 712.881 503.853 712.881 500.857C712.881 497.895 713.61 495.525 715.068 493.748C716.527 491.959 718.492 491.064 720.964 491.064C723.152 491.064 724.878 491.828 726.143 493.354C727.407 494.881 728.04 496.955 728.04 499.575V500.942H714.658C714.681 503.494 715.273 505.443 716.436 506.787C717.609 508.132 719.284 508.804 721.46 508.804C722.52 508.804 723.448 508.73 724.246 508.582C725.055 508.433 726.074 508.114 727.305 507.625V509.163C726.257 509.618 725.288 509.926 724.399 510.085C723.511 510.256 722.531 510.342 721.46 510.342ZM720.964 492.568C719.176 492.568 717.74 493.161 716.658 494.346C715.575 495.519 714.943 497.217 714.761 499.438H726.245C726.245 497.285 725.778 495.605 724.844 494.397C723.91 493.178 722.616 492.568 720.964 492.568ZM748.018 510L743.95 497.576C743.688 496.733 743.352 495.496 742.942 493.867H742.839L742.48 495.132L741.711 497.61L737.576 510H735.901L730.586 491.423H732.397L735.371 502.19C736.066 504.856 736.522 506.816 736.738 508.069H736.841C737.513 505.403 738.003 503.631 738.311 502.754L742.139 491.423H743.677L747.317 502.72C748.137 505.397 748.639 507.169 748.821 508.035H748.923C749.014 507.294 749.47 505.312 750.291 502.087L753.127 491.423H754.836L749.795 510H748.018Z" fill="white"/>
<path d="M569.617 513.503H755.366V515.247H569.617V513.503Z" fill="white"/>
<rect x="57" y="58" width="1211" height="634" rx="24" stroke="white" stroke-width="20"/>
</svg>
