<svg width="1334" height="750" viewBox="0 0 1334 750" fill="none" xmlns="http://www.w3.org/2000/svg">
<rect x="57" y="58" width="1211" height="634" rx="24" fill="#15364F" stroke="white" stroke-width="20"/>
<path d="M484.679 387.96V413.16C484.679 416.707 485.053 419.273 485.799 420.86C486.546 422.447 487.853 423.52 489.719 424.08C491.586 424.64 494.619 425.013 498.819 425.2V428C493.966 427.72 487.106 427.58 478.239 427.58C470.213 427.58 464.239 427.72 460.319 428V425.2C463.679 425.013 466.106 424.64 467.599 424.08C469.186 423.52 470.259 422.447 470.819 420.86C471.379 419.273 471.659 416.707 471.659 413.16V343.72C471.659 340.173 471.379 337.607 470.819 336.02C470.259 334.433 469.186 333.36 467.599 332.8C466.106 332.24 463.679 331.867 460.319 331.68V328.88C464.239 329.16 469.933 329.3 477.399 329.3L492.519 329.16C494.293 329.067 496.299 329.02 498.539 329.02C509.459 329.02 517.813 331.54 523.599 336.58C529.386 341.527 532.279 348.2 532.279 356.6C532.279 361.733 531.113 366.68 528.779 371.44C526.539 376.107 522.666 380.027 517.159 383.2C511.746 386.373 504.513 387.96 495.459 387.96H484.679ZM495.039 331.68C492.146 331.68 489.953 332.007 488.459 332.66C487.059 333.313 486.079 334.48 485.519 336.16C484.959 337.84 484.679 340.36 484.679 343.72V385.16H494.059C503.206 385.16 509.506 382.733 512.959 377.88C516.506 372.933 518.279 366.353 518.279 358.14C518.279 349.087 516.459 342.413 512.819 338.12C509.273 333.827 503.346 331.68 495.039 331.68ZM558.197 428.98C552.317 428.98 547.93 427.533 545.037 424.64C542.237 421.653 540.837 417.547 540.837 412.32C540.837 408.12 541.957 404.667 544.197 401.96C546.53 399.253 549.237 397.107 552.317 395.52C555.49 393.933 559.644 392.253 564.777 390.48C570.004 388.707 573.877 387.073 576.397 385.58C578.917 384.087 580.177 382.08 580.177 379.56V370.88C580.177 365.467 579.01 361.78 576.677 359.82C574.437 357.767 571.264 356.74 567.157 356.74C560.624 356.74 556.004 358.42 553.297 361.78C555.164 362.247 556.704 363.227 557.917 364.72C559.224 366.213 559.877 368.08 559.877 370.32C559.877 372.653 559.13 374.52 557.637 375.92C556.144 377.227 554.23 377.88 551.897 377.88C549.284 377.88 547.324 377.087 546.017 375.5C544.71 373.82 544.057 371.813 544.057 369.48C544.057 367.24 544.57 365.373 545.597 363.88C546.717 362.387 548.35 360.893 550.497 359.4C552.737 357.813 555.584 356.507 559.037 355.48C562.49 354.453 566.27 353.94 570.377 353.94C577.657 353.94 583.164 355.667 586.897 359.12C589.23 361.267 590.77 363.88 591.517 366.96C592.357 369.947 592.777 373.913 592.777 378.86V417.78C592.777 420.113 593.104 421.793 593.757 422.82C594.41 423.847 595.53 424.36 597.117 424.36C598.237 424.36 599.264 424.127 600.197 423.66C601.224 423.1 602.297 422.353 603.417 421.42L604.957 423.8C602.53 425.667 600.43 427.02 598.657 427.86C596.977 428.607 594.83 428.98 592.217 428.98C587.737 428.98 584.61 427.86 582.837 425.62C581.064 423.38 580.177 420.347 580.177 416.52C577.377 421.187 574.157 424.453 570.517 426.32C566.877 428.093 562.77 428.98 558.197 428.98ZM564.357 423.38C570.517 423.38 575.79 419.833 580.177 412.74V385.3C579.337 386.607 578.17 387.68 576.677 388.52C575.184 389.36 572.897 390.48 569.817 391.88C566.27 393.373 563.377 394.82 561.137 396.22C558.99 397.527 557.124 399.347 555.537 401.68C553.95 404.013 553.157 407 553.157 410.64C553.157 414.84 554.184 418.013 556.237 420.16C558.29 422.307 560.997 423.38 564.357 423.38ZM652.704 353.94C656.437 353.94 659.47 355.013 661.804 357.16C664.23 359.307 665.444 361.92 665.444 365C665.444 367.427 664.697 369.527 663.204 371.3C661.804 372.98 659.89 373.82 657.464 373.82C655.41 373.82 653.637 373.167 652.144 371.86C650.744 370.553 650.044 368.78 650.044 366.54C650.044 363.46 651.63 360.94 654.804 358.98C654.15 358.047 653.17 357.58 651.864 357.58C648.224 357.58 644.91 359.027 641.924 361.92C638.937 364.72 636.604 368.173 634.924 372.28C633.244 376.387 632.404 380.26 632.404 383.9V413.58C632.404 417.873 633.617 420.86 636.044 422.54C638.564 424.22 642.297 425.06 647.244 425.06V428L643.884 427.86C634.364 427.58 628.297 427.44 625.684 427.44C623.257 427.44 617.75 427.627 609.164 428V425.06C613.084 425.06 615.837 424.36 617.424 422.96C619.01 421.467 619.804 418.807 619.804 414.98V371.16C619.804 366.867 619.01 363.74 617.424 361.78C615.837 359.82 613.084 358.84 609.164 358.84V355.9C612.15 356.18 615.044 356.32 617.844 356.32C623.724 356.32 628.577 355.667 632.404 354.36V371.86C634.084 367.193 636.744 363.04 640.384 359.4C644.117 355.76 648.224 353.94 652.704 353.94ZM729.533 411.2C727.853 416.333 724.68 420.767 720.013 424.5C715.44 428.14 709.886 429.96 703.353 429.96C696.726 429.96 690.986 428.467 686.133 425.48C681.28 422.4 677.546 418.153 674.933 412.74C672.413 407.233 671.153 400.887 671.153 393.7C671.153 385.58 672.46 378.533 675.073 372.56C677.686 366.587 681.373 362.013 686.133 358.84C690.893 355.573 696.446 353.94 702.793 353.94C711.193 353.94 717.633 356.507 722.113 361.64C726.686 366.68 728.973 374.38 728.973 384.74H685.153C684.873 387.353 684.733 390.34 684.733 393.7C684.733 399.86 685.713 405.227 687.673 409.8C689.726 414.373 692.386 417.92 695.653 420.44C699.013 422.867 702.513 424.08 706.153 424.08C710.633 424.08 714.6 423.007 718.053 420.86C721.506 418.713 724.4 415.12 726.733 410.08L729.533 411.2ZM702.233 356.6C697.846 356.6 694.066 358.747 690.893 363.04C687.72 367.333 685.76 373.68 685.013 382.08H715.533C715.72 374.8 714.646 368.733 712.313 363.88C710.073 359.027 706.713 356.6 702.233 356.6ZM786.633 353.94C793.167 353.94 798.113 355.713 801.473 359.26C803.247 361.127 804.507 363.46 805.253 366.26C806 369.06 806.373 372.84 806.373 377.6V414.98C806.373 418.807 807.167 421.467 808.753 422.96C810.34 424.36 813.093 425.06 817.013 425.06V428C808.427 427.627 802.827 427.44 800.213 427.44C797.6 427.44 792.373 427.627 784.533 428V425.06C787.987 425.06 790.367 424.36 791.673 422.96C793.073 421.467 793.773 418.807 793.773 414.98V374.52C793.773 369.293 793.027 365.327 791.533 362.62C790.04 359.82 787.007 358.42 782.433 358.42C778.607 358.42 775.2 359.54 772.213 361.78C769.227 364.02 766.893 367.1 765.213 371.02C763.627 374.847 762.833 379.14 762.833 383.9V414.98C762.833 418.807 763.487 421.467 764.793 422.96C766.193 424.36 768.62 425.06 772.073 425.06V428C764.233 427.627 759.007 427.44 756.393 427.44C753.78 427.44 748.18 427.627 739.593 428V425.06C743.513 425.06 746.267 424.36 747.853 422.96C749.44 421.467 750.233 418.807 750.233 414.98V371.16C750.233 366.867 749.44 363.74 747.853 361.78C746.267 359.82 743.513 358.84 739.593 358.84V355.9C742.58 356.18 745.473 356.32 748.273 356.32C754.153 356.32 759.007 355.667 762.833 354.36V370.88C765.167 364.907 768.387 360.613 772.493 358C776.693 355.293 781.407 353.94 786.633 353.94ZM845.668 356.04H866.388V358.84H845.668V413.02C845.668 417.22 846.415 420.253 847.908 422.12C849.495 423.987 851.735 424.92 854.628 424.92C857.522 424.92 859.995 423.753 862.048 421.42C864.102 419.087 865.828 415.26 867.228 409.94L870.028 410.64C867.695 423.52 861.628 429.96 851.828 429.96C848.655 429.96 846.042 429.587 843.988 428.84C841.935 428.093 840.115 426.927 838.528 425.34C836.475 423.287 835.028 420.767 834.188 417.78C833.442 414.793 833.068 410.78 833.068 405.74V358.84H819.628V356.04H833.068V334.62C838.295 334.433 842.495 333.78 845.668 332.66V356.04Z" fill="white"/>
<rect x="67" y="619" width="1196" height="67" fill="#D56B38"/>
<path d="M579.666 510H577.905V486.655H569.788V485.015H587.783V486.655H579.666V510ZM602.361 510L601.934 507.061H601.797C600.863 508.257 599.9 509.106 598.909 509.607C597.929 510.097 596.767 510.342 595.422 510.342C593.599 510.342 592.181 509.875 591.167 508.94C590.153 508.006 589.646 506.713 589.646 505.061C589.646 503.25 590.398 501.842 591.902 500.84C593.417 499.837 595.605 499.307 598.464 499.25L602.002 499.148V497.917C602.002 496.152 601.643 494.819 600.925 493.918C600.208 493.018 599.051 492.568 597.456 492.568C595.736 492.568 593.953 493.047 592.107 494.004L591.475 492.534C593.514 491.577 595.531 491.099 597.524 491.099C599.564 491.099 601.085 491.628 602.087 492.688C603.101 493.748 603.608 495.4 603.608 497.644V510H602.361ZM595.525 508.804C597.507 508.804 599.068 508.24 600.208 507.112C601.358 505.972 601.934 504.395 601.934 502.378V500.549L598.687 500.686C596.077 500.811 594.215 501.222 593.098 501.917C591.993 502.6 591.44 503.671 591.44 505.129C591.44 506.292 591.794 507.197 592.5 507.847C593.218 508.485 594.226 508.804 595.525 508.804ZM617.588 510.342C614.728 510.342 612.643 509.271 611.333 507.129H611.213L611.265 508.564C611.31 509.408 611.333 510.33 611.333 511.333V518.408H609.641V491.423H611.077L611.401 494.072H611.504C612.78 492.067 614.819 491.064 617.622 491.064C620.129 491.064 622.037 491.89 623.347 493.542C624.669 495.183 625.33 497.576 625.33 500.72C625.33 503.774 624.635 506.143 623.245 507.83C621.866 509.504 619.98 510.342 617.588 510.342ZM617.554 508.838C619.456 508.838 620.926 508.132 621.963 506.719C623.011 505.306 623.535 503.329 623.535 500.789C623.535 495.331 621.564 492.603 617.622 492.603C615.457 492.603 613.868 493.201 612.854 494.397C611.84 495.582 611.333 497.519 611.333 500.208V500.754C611.333 503.66 611.817 505.733 612.786 506.975C613.765 508.217 615.355 508.838 617.554 508.838ZM646.487 492.893H642.112V510H640.42V492.893H636.968V491.902L640.42 491.27V489.834C640.42 487.555 640.836 485.886 641.667 484.827C642.511 483.756 643.883 483.22 645.786 483.22C646.812 483.22 647.837 483.374 648.862 483.682L648.469 485.151C647.558 484.867 646.652 484.724 645.752 484.724C644.43 484.724 643.49 485.117 642.932 485.903C642.385 486.678 642.112 487.943 642.112 489.697V491.423H646.487V492.893ZM665.439 500.686C665.439 503.717 664.705 506.086 663.235 507.795C661.765 509.493 659.737 510.342 657.151 510.342C655.522 510.342 654.086 509.949 652.844 509.163C651.602 508.376 650.651 507.249 649.99 505.779C649.329 504.309 648.999 502.611 648.999 500.686C648.999 497.655 649.734 495.297 651.204 493.611C652.673 491.913 654.69 491.064 657.253 491.064C659.806 491.064 661.805 491.925 663.252 493.645C664.71 495.354 665.439 497.701 665.439 500.686ZM650.776 500.686C650.776 503.238 651.335 505.232 652.451 506.667C653.579 508.092 655.168 508.804 657.219 508.804C659.27 508.804 660.854 508.092 661.97 506.667C663.098 505.232 663.662 503.238 663.662 500.686C663.662 498.123 663.092 496.134 661.953 494.722C660.825 493.309 659.236 492.603 657.185 492.603C655.134 492.603 653.551 493.309 652.434 494.722C651.329 496.123 650.776 498.111 650.776 500.686ZM677.898 491.064C678.684 491.064 679.527 491.144 680.427 491.304L680.103 492.927C679.328 492.734 678.525 492.637 677.693 492.637C676.109 492.637 674.81 493.309 673.796 494.653C672.782 495.998 672.275 497.695 672.275 499.746V510H670.583V491.423H672.019L672.19 494.773H672.31C673.073 493.406 673.888 492.449 674.753 491.902C675.619 491.344 676.667 491.064 677.898 491.064ZM706.267 510V497.952C706.267 496.083 705.874 494.727 705.088 493.884C704.302 493.03 703.083 492.603 701.431 492.603C699.209 492.603 697.58 493.167 696.543 494.294C695.518 495.411 695.005 497.228 695.005 499.746V510H693.313V491.423H694.749L695.073 493.97H695.176C696.383 492.033 698.531 491.064 701.619 491.064C705.834 491.064 707.942 493.326 707.942 497.849V510H706.267ZM721.46 510.342C718.76 510.342 716.652 509.51 715.137 507.847C713.633 506.183 712.881 503.853 712.881 500.857C712.881 497.895 713.61 495.525 715.068 493.748C716.527 491.959 718.492 491.064 720.964 491.064C723.152 491.064 724.878 491.828 726.143 493.354C727.407 494.881 728.04 496.955 728.04 499.575V500.942H714.658C714.681 503.494 715.273 505.443 716.436 506.787C717.609 508.132 719.284 508.804 721.46 508.804C722.52 508.804 723.448 508.73 724.246 508.582C725.055 508.433 726.074 508.114 727.305 507.625V509.163C726.257 509.618 725.288 509.926 724.399 510.085C723.511 510.256 722.531 510.342 721.46 510.342ZM720.964 492.568C719.176 492.568 717.74 493.161 716.658 494.346C715.575 495.519 714.943 497.217 714.761 499.438H726.245C726.245 497.285 725.778 495.605 724.844 494.397C723.91 493.178 722.616 492.568 720.964 492.568ZM748.018 510L743.95 497.576C743.688 496.733 743.352 495.496 742.942 493.867H742.839L742.48 495.132L741.711 497.61L737.576 510H735.901L730.586 491.423H732.397L735.371 502.19C736.066 504.856 736.522 506.816 736.738 508.069H736.841C737.513 505.403 738.003 503.631 738.311 502.754L742.139 491.423H743.677L747.317 502.72C748.137 505.397 748.639 507.169 748.821 508.035H748.923C749.014 507.294 749.47 505.312 750.291 502.087L753.127 491.423H754.836L749.795 510H748.018Z" fill="white"/>
<path d="M569.617 513.503H755.366V515.247H569.617V513.503Z" fill="white"/>
<rect x="57" y="58" width="1211" height="634" rx="24" stroke="white" stroke-width="20"/>
</svg>
