<svg width="1334" height="750" viewBox="0 0 1334 750" fill="none" xmlns="http://www.w3.org/2000/svg">
<rect x="57" y="58" width="1211" height="634" rx="24" fill="#15364F" stroke="white" stroke-width="20"/>
<path d="M484.679 355.96V381.16C484.679 384.707 485.053 387.273 485.799 388.86C486.546 390.447 487.853 391.52 489.719 392.08C491.586 392.64 494.619 393.013 498.819 393.2V396C493.966 395.72 487.106 395.58 478.239 395.58C470.213 395.58 464.239 395.72 460.319 396V393.2C463.679 393.013 466.106 392.64 467.599 392.08C469.186 391.52 470.259 390.447 470.819 388.86C471.379 387.273 471.659 384.707 471.659 381.16V311.72C471.659 308.173 471.379 305.607 470.819 304.02C470.259 302.433 469.186 301.36 467.599 300.8C466.106 300.24 463.679 299.867 460.319 299.68V296.88C464.239 297.16 469.933 297.3 477.399 297.3L492.519 297.16C494.293 297.067 496.299 297.02 498.539 297.02C509.459 297.02 517.813 299.54 523.599 304.58C529.386 309.527 532.279 316.2 532.279 324.6C532.279 329.733 531.113 334.68 528.779 339.44C526.539 344.107 522.666 348.027 517.159 351.2C511.746 354.373 504.513 355.96 495.459 355.96H484.679ZM495.039 299.68C492.146 299.68 489.953 300.007 488.459 300.66C487.059 301.313 486.079 302.48 485.519 304.16C484.959 305.84 484.679 308.36 484.679 311.72V353.16H494.059C503.206 353.16 509.506 350.733 512.959 345.88C516.506 340.933 518.279 334.353 518.279 326.14C518.279 317.087 516.459 310.413 512.819 306.12C509.273 301.827 503.346 299.68 495.039 299.68ZM558.197 396.98C552.317 396.98 547.93 395.533 545.037 392.64C542.237 389.653 540.837 385.547 540.837 380.32C540.837 376.12 541.957 372.667 544.197 369.96C546.53 367.253 549.237 365.107 552.317 363.52C555.49 361.933 559.644 360.253 564.777 358.48C570.004 356.707 573.877 355.073 576.397 353.58C578.917 352.087 580.177 350.08 580.177 347.56V338.88C580.177 333.467 579.01 329.78 576.677 327.82C574.437 325.767 571.264 324.74 567.157 324.74C560.624 324.74 556.004 326.42 553.297 329.78C555.164 330.247 556.704 331.227 557.917 332.72C559.224 334.213 559.877 336.08 559.877 338.32C559.877 340.653 559.13 342.52 557.637 343.92C556.144 345.227 554.23 345.88 551.897 345.88C549.284 345.88 547.324 345.087 546.017 343.5C544.71 341.82 544.057 339.813 544.057 337.48C544.057 335.24 544.57 333.373 545.597 331.88C546.717 330.387 548.35 328.893 550.497 327.4C552.737 325.813 555.584 324.507 559.037 323.48C562.49 322.453 566.27 321.94 570.377 321.94C577.657 321.94 583.164 323.667 586.897 327.12C589.23 329.267 590.77 331.88 591.517 334.96C592.357 337.947 592.777 341.913 592.777 346.86V385.78C592.777 388.113 593.104 389.793 593.757 390.82C594.41 391.847 595.53 392.36 597.117 392.36C598.237 392.36 599.264 392.127 600.197 391.66C601.224 391.1 602.297 390.353 603.417 389.42L604.957 391.8C602.53 393.667 600.43 395.02 598.657 395.86C596.977 396.607 594.83 396.98 592.217 396.98C587.737 396.98 584.61 395.86 582.837 393.62C581.064 391.38 580.177 388.347 580.177 384.52C577.377 389.187 574.157 392.453 570.517 394.32C566.877 396.093 562.77 396.98 558.197 396.98ZM564.357 391.38C570.517 391.38 575.79 387.833 580.177 380.74V353.3C579.337 354.607 578.17 355.68 576.677 356.52C575.184 357.36 572.897 358.48 569.817 359.88C566.27 361.373 563.377 362.82 561.137 364.22C558.99 365.527 557.124 367.347 555.537 369.68C553.95 372.013 553.157 375 553.157 378.64C553.157 382.84 554.184 386.013 556.237 388.16C558.29 390.307 560.997 391.38 564.357 391.38ZM652.704 321.94C656.437 321.94 659.47 323.013 661.804 325.16C664.23 327.307 665.444 329.92 665.444 333C665.444 335.427 664.697 337.527 663.204 339.3C661.804 340.98 659.89 341.82 657.464 341.82C655.41 341.82 653.637 341.167 652.144 339.86C650.744 338.553 650.044 336.78 650.044 334.54C650.044 331.46 651.63 328.94 654.804 326.98C654.15 326.047 653.17 325.58 651.864 325.58C648.224 325.58 644.91 327.027 641.924 329.92C638.937 332.72 636.604 336.173 634.924 340.28C633.244 344.387 632.404 348.26 632.404 351.9V381.58C632.404 385.873 633.617 388.86 636.044 390.54C638.564 392.22 642.297 393.06 647.244 393.06V396L643.884 395.86C634.364 395.58 628.297 395.44 625.684 395.44C623.257 395.44 617.75 395.627 609.164 396V393.06C613.084 393.06 615.837 392.36 617.424 390.96C619.01 389.467 619.804 386.807 619.804 382.98V339.16C619.804 334.867 619.01 331.74 617.424 329.78C615.837 327.82 613.084 326.84 609.164 326.84V323.9C612.15 324.18 615.044 324.32 617.844 324.32C623.724 324.32 628.577 323.667 632.404 322.36V339.86C634.084 335.193 636.744 331.04 640.384 327.4C644.117 323.76 648.224 321.94 652.704 321.94ZM729.533 379.2C727.853 384.333 724.68 388.767 720.013 392.5C715.44 396.14 709.886 397.96 703.353 397.96C696.726 397.96 690.986 396.467 686.133 393.48C681.28 390.4 677.546 386.153 674.933 380.74C672.413 375.233 671.153 368.887 671.153 361.7C671.153 353.58 672.46 346.533 675.073 340.56C677.686 334.587 681.373 330.013 686.133 326.84C690.893 323.573 696.446 321.94 702.793 321.94C711.193 321.94 717.633 324.507 722.113 329.64C726.686 334.68 728.973 342.38 728.973 352.74H685.153C684.873 355.353 684.733 358.34 684.733 361.7C684.733 367.86 685.713 373.227 687.673 377.8C689.726 382.373 692.386 385.92 695.653 388.44C699.013 390.867 702.513 392.08 706.153 392.08C710.633 392.08 714.6 391.007 718.053 388.86C721.506 386.713 724.4 383.12 726.733 378.08L729.533 379.2ZM702.233 324.6C697.846 324.6 694.066 326.747 690.893 331.04C687.72 335.333 685.76 341.68 685.013 350.08H715.533C715.72 342.8 714.646 336.733 712.313 331.88C710.073 327.027 706.713 324.6 702.233 324.6ZM786.633 321.94C793.167 321.94 798.113 323.713 801.473 327.26C803.247 329.127 804.507 331.46 805.253 334.26C806 337.06 806.373 340.84 806.373 345.6V382.98C806.373 386.807 807.167 389.467 808.753 390.96C810.34 392.36 813.093 393.06 817.013 393.06V396C808.427 395.627 802.827 395.44 800.213 395.44C797.6 395.44 792.373 395.627 784.533 396V393.06C787.987 393.06 790.367 392.36 791.673 390.96C793.073 389.467 793.773 386.807 793.773 382.98V342.52C793.773 337.293 793.027 333.327 791.533 330.62C790.04 327.82 787.007 326.42 782.433 326.42C778.607 326.42 775.2 327.54 772.213 329.78C769.227 332.02 766.893 335.1 765.213 339.02C763.627 342.847 762.833 347.14 762.833 351.9V382.98C762.833 386.807 763.487 389.467 764.793 390.96C766.193 392.36 768.62 393.06 772.073 393.06V396C764.233 395.627 759.007 395.44 756.393 395.44C753.78 395.44 748.18 395.627 739.593 396V393.06C743.513 393.06 746.267 392.36 747.853 390.96C749.44 389.467 750.233 386.807 750.233 382.98V339.16C750.233 334.867 749.44 331.74 747.853 329.78C746.267 327.82 743.513 326.84 739.593 326.84V323.9C742.58 324.18 745.473 324.32 748.273 324.32C754.153 324.32 759.007 323.667 762.833 322.36V338.88C765.167 332.907 768.387 328.613 772.493 326C776.693 323.293 781.407 321.94 786.633 321.94ZM845.668 324.04H866.388V326.84H845.668V381.02C845.668 385.22 846.415 388.253 847.908 390.12C849.495 391.987 851.735 392.92 854.628 392.92C857.522 392.92 859.995 391.753 862.048 389.42C864.102 387.087 865.828 383.26 867.228 377.94L870.028 378.64C867.695 391.52 861.628 397.96 851.828 397.96C848.655 397.96 846.042 397.587 843.988 396.84C841.935 396.093 840.115 394.927 838.528 393.34C836.475 391.287 835.028 388.767 834.188 385.78C833.442 382.793 833.068 378.78 833.068 373.74V326.84H819.628V324.04H833.068V302.62C838.295 302.433 842.495 301.78 845.668 300.66V324.04Z" fill="white"/>
<rect x="67" y="619" width="1196" height="67" fill="#D56B38"/>
<path d="M579.666 478H577.905V454.655H569.788V453.015H587.783V454.655H579.666V478ZM602.361 478L601.934 475.061H601.797C600.863 476.257 599.9 477.106 598.909 477.607C597.929 478.097 596.767 478.342 595.422 478.342C593.599 478.342 592.181 477.875 591.167 476.94C590.153 476.006 589.646 474.713 589.646 473.061C589.646 471.25 590.398 469.842 591.902 468.84C593.417 467.837 595.605 467.307 598.464 467.25L602.002 467.148V465.917C602.002 464.152 601.643 462.819 600.925 461.918C600.208 461.018 599.051 460.568 597.456 460.568C595.736 460.568 593.953 461.047 592.107 462.004L591.475 460.534C593.514 459.577 595.531 459.099 597.524 459.099C599.564 459.099 601.085 459.628 602.087 460.688C603.101 461.748 603.608 463.4 603.608 465.644V478H602.361ZM595.525 476.804C597.507 476.804 599.068 476.24 600.208 475.112C601.358 473.972 601.934 472.395 601.934 470.378V468.549L598.687 468.686C596.077 468.811 594.215 469.222 593.098 469.917C591.993 470.6 591.44 471.671 591.44 473.129C591.44 474.292 591.794 475.197 592.5 475.847C593.218 476.485 594.226 476.804 595.525 476.804ZM617.588 478.342C614.728 478.342 612.643 477.271 611.333 475.129H611.213L611.265 476.564C611.31 477.408 611.333 478.33 611.333 479.333V486.408H609.641V459.423H611.077L611.401 462.072H611.504C612.78 460.067 614.819 459.064 617.622 459.064C620.129 459.064 622.037 459.89 623.347 461.542C624.669 463.183 625.33 465.576 625.33 468.72C625.33 471.774 624.635 474.143 623.245 475.83C621.866 477.504 619.98 478.342 617.588 478.342ZM617.554 476.838C619.456 476.838 620.926 476.132 621.963 474.719C623.011 473.306 623.535 471.329 623.535 468.789C623.535 463.331 621.564 460.603 617.622 460.603C615.457 460.603 613.868 461.201 612.854 462.397C611.84 463.582 611.333 465.519 611.333 468.208V468.754C611.333 471.66 611.817 473.733 612.786 474.975C613.765 476.217 615.355 476.838 617.554 476.838ZM646.487 460.893H642.112V478H640.42V460.893H636.968V459.902L640.42 459.27V457.834C640.42 455.555 640.836 453.886 641.667 452.827C642.511 451.756 643.883 451.22 645.786 451.22C646.812 451.22 647.837 451.374 648.862 451.682L648.469 453.151C647.558 452.867 646.652 452.724 645.752 452.724C644.43 452.724 643.49 453.117 642.932 453.903C642.385 454.678 642.112 455.943 642.112 457.697V459.423H646.487V460.893ZM665.439 468.686C665.439 471.717 664.705 474.086 663.235 475.795C661.765 477.493 659.737 478.342 657.151 478.342C655.522 478.342 654.086 477.949 652.844 477.163C651.602 476.376 650.651 475.249 649.99 473.779C649.329 472.309 648.999 470.611 648.999 468.686C648.999 465.655 649.734 463.297 651.204 461.611C652.673 459.913 654.69 459.064 657.253 459.064C659.806 459.064 661.805 459.925 663.252 461.645C664.71 463.354 665.439 465.701 665.439 468.686ZM650.776 468.686C650.776 471.238 651.335 473.232 652.451 474.667C653.579 476.092 655.168 476.804 657.219 476.804C659.27 476.804 660.854 476.092 661.97 474.667C663.098 473.232 663.662 471.238 663.662 468.686C663.662 466.123 663.092 464.134 661.953 462.722C660.825 461.309 659.236 460.603 657.185 460.603C655.134 460.603 653.551 461.309 652.434 462.722C651.329 464.123 650.776 466.111 650.776 468.686ZM677.898 459.064C678.684 459.064 679.527 459.144 680.427 459.304L680.103 460.927C679.328 460.734 678.525 460.637 677.693 460.637C676.109 460.637 674.81 461.309 673.796 462.653C672.782 463.998 672.275 465.695 672.275 467.746V478H670.583V459.423H672.019L672.19 462.773H672.31C673.073 461.406 673.888 460.449 674.753 459.902C675.619 459.344 676.667 459.064 677.898 459.064ZM706.267 478V465.952C706.267 464.083 705.874 462.727 705.088 461.884C704.302 461.03 703.083 460.603 701.431 460.603C699.209 460.603 697.58 461.167 696.543 462.294C695.518 463.411 695.005 465.228 695.005 467.746V478H693.313V459.423H694.749L695.073 461.97H695.176C696.383 460.033 698.531 459.064 701.619 459.064C705.834 459.064 707.942 461.326 707.942 465.849V478H706.267ZM721.46 478.342C718.76 478.342 716.652 477.51 715.137 475.847C713.633 474.183 712.881 471.853 712.881 468.857C712.881 465.895 713.61 463.525 715.068 461.748C716.527 459.959 718.492 459.064 720.964 459.064C723.152 459.064 724.878 459.828 726.143 461.354C727.407 462.881 728.04 464.955 728.04 467.575V468.942H714.658C714.681 471.494 715.273 473.443 716.436 474.787C717.609 476.132 719.284 476.804 721.46 476.804C722.52 476.804 723.448 476.73 724.246 476.582C725.055 476.433 726.074 476.114 727.305 475.625V477.163C726.257 477.618 725.288 477.926 724.399 478.085C723.511 478.256 722.531 478.342 721.46 478.342ZM720.964 460.568C719.176 460.568 717.74 461.161 716.658 462.346C715.575 463.519 714.943 465.217 714.761 467.438H726.245C726.245 465.285 725.778 463.605 724.844 462.397C723.91 461.178 722.616 460.568 720.964 460.568ZM748.018 478L743.95 465.576C743.688 464.733 743.352 463.496 742.942 461.867H742.839L742.48 463.132L741.711 465.61L737.576 478H735.901L730.586 459.423H732.397L735.371 470.19C736.066 472.856 736.522 474.816 736.738 476.069H736.841C737.513 473.403 738.003 471.631 738.311 470.754L742.139 459.423H743.677L747.317 470.72C748.137 473.397 748.639 475.169 748.821 476.035H748.923C749.014 475.294 749.47 473.312 750.291 470.087L753.127 459.423H754.836L749.795 478H748.018Z" fill="white"/>
<path d="M569.617 481.503H755.366V483.247H569.617V481.503Z" fill="white"/>
<rect x="57" y="58" width="1211" height="634" rx="24" stroke="white" stroke-width="20"/>
</svg>
