<svg width="1334" height="750" viewBox="0 0 1334 750" fill="none" xmlns="http://www.w3.org/2000/svg">
<rect x="57" y="58" width="1211" height="634" rx="24" fill="#15364F" stroke="white" stroke-width="20"/>
<path d="M451.52 327.34C455.626 327.34 458.846 327.807 461.18 328.74C463.606 329.58 466.08 330.84 468.6 332.52C470.653 333.827 472.24 334.48 473.36 334.48C474.2 334.48 474.853 334.013 475.32 333.08C475.786 332.053 476.16 330.467 476.44 328.32H479.66C479.193 333.733 478.96 343.253 478.96 356.88H475.74C475.18 349.32 472.986 342.973 469.16 337.84C465.426 332.613 459.966 330 452.78 330C447.74 330 443.633 331.54 440.46 334.62C437.286 337.607 435.7 341.48 435.7 346.24C435.7 349.787 436.493 352.867 438.08 355.48C439.76 358.093 441.86 360.333 444.38 362.2C446.9 364.067 450.493 366.447 455.16 369.34L459.22 371.86C465.1 375.5 469.72 378.72 473.08 381.52C476.533 384.227 479.286 387.353 481.34 390.9C483.393 394.447 484.42 398.6 484.42 403.36C484.42 411.853 481.62 418.433 476.02 423.1C470.42 427.673 463.326 429.96 454.74 429.96C450.26 429.96 446.573 429.493 443.68 428.56C440.88 427.627 438.173 426.367 435.56 424.78C433.506 423.473 431.92 422.82 430.8 422.82C429.96 422.82 429.306 423.333 428.84 424.36C428.373 425.293 428 426.833 427.72 428.98H424.5C424.873 423.847 425.06 412.647 425.06 395.38H428.28C428.933 404.807 431.266 412.46 435.28 418.34C439.293 424.22 445.453 427.16 453.76 427.16C458.8 427.16 463.093 425.62 466.64 422.54C470.186 419.367 471.96 414.7 471.96 408.54C471.96 403.313 470.186 398.88 466.64 395.24C463.186 391.6 457.68 387.493 450.12 382.92C444.613 379.56 440.133 376.573 436.68 373.96C433.32 371.347 430.566 368.22 428.42 364.58C426.273 360.847 425.2 356.507 425.2 351.56C425.2 343.72 427.72 337.747 432.76 333.64C437.8 329.44 444.053 327.34 451.52 327.34ZM517.885 356.04H538.605V358.84H517.885V413.02C517.885 417.22 518.632 420.253 520.125 422.12C521.712 423.987 523.952 424.92 526.845 424.92C529.738 424.92 532.212 423.753 534.265 421.42C536.318 419.087 538.045 415.26 539.445 409.94L542.245 410.64C539.912 423.52 533.845 429.96 524.045 429.96C520.872 429.96 518.258 429.587 516.205 428.84C514.152 428.093 512.332 426.927 510.745 425.34C508.692 423.287 507.245 420.767 506.405 417.78C505.658 414.793 505.285 410.78 505.285 405.74V358.84H491.845V356.04H505.285V334.62C510.512 334.433 514.712 333.78 517.885 332.66V356.04ZM608.397 412.88C608.397 417.173 609.191 420.3 610.777 422.26C612.364 424.22 615.117 425.2 619.037 425.2V428.14C616.144 427.86 613.251 427.72 610.357 427.72C604.477 427.72 599.624 428.373 595.797 429.68V413.16C593.557 418.947 590.384 423.193 586.277 425.9C582.171 428.607 577.691 429.96 572.837 429.96C566.491 429.96 561.637 428.187 558.277 424.64C556.597 422.773 555.384 420.393 554.637 417.5C553.984 414.607 553.657 410.873 553.657 406.3V371.16C553.657 366.867 552.864 363.74 551.277 361.78C549.691 359.82 546.937 358.84 543.017 358.84V355.9C545.911 356.18 548.804 356.32 551.697 356.32C557.577 356.32 562.431 355.667 566.257 354.36V409.38C566.257 412.927 566.444 415.82 566.817 418.06C567.284 420.207 568.264 421.98 569.757 423.38C571.344 424.78 573.724 425.48 576.897 425.48C580.444 425.48 583.664 424.36 586.557 422.12C589.451 419.88 591.691 416.847 593.277 413.02C594.957 409.1 595.797 404.807 595.797 400.14V371.16C595.797 366.867 595.004 363.74 593.417 361.78C591.831 359.82 589.077 358.84 585.157 358.84V355.9C588.051 356.18 590.944 356.32 593.837 356.32C599.717 356.32 604.571 355.667 608.397 354.36V412.88ZM689.885 412.74C689.885 417.033 690.678 420.16 692.265 422.12C693.852 424.08 696.605 425.06 700.525 425.06V428C697.632 427.72 694.738 427.58 691.845 427.58C685.965 427.58 681.112 428.233 677.285 429.54V417.08C675.605 421.28 673.085 424.5 669.725 426.74C666.365 428.887 662.258 429.96 657.405 429.96C648.445 429.96 641.398 426.74 636.265 420.3C631.225 413.86 628.752 404.433 628.845 392.02C628.845 383.9 630.245 376.993 633.045 371.3C635.938 365.513 639.765 361.173 644.525 358.28C649.378 355.387 654.698 353.94 660.485 353.94C664.032 353.94 667.252 354.64 670.145 356.04C673.132 357.347 675.512 359.4 677.285 362.2V335.04C677.285 330.747 676.492 327.62 674.905 325.66C673.318 323.7 670.565 322.72 666.645 322.72V319.78C669.632 320.06 672.525 320.2 675.325 320.2C681.205 320.2 686.058 319.547 689.885 318.24V412.74ZM661.465 425.76C665.105 425.76 668.372 424.36 671.265 421.56C674.158 418.76 676.165 414.793 677.285 409.66V367.94C674.765 360.753 669.538 357.16 661.605 357.16C655.818 357.16 651.152 360.147 647.605 366.12C644.058 372 642.332 380.633 642.425 392.02C642.332 403.22 643.918 411.667 647.185 417.36C650.452 422.96 655.212 425.76 661.465 425.76ZM768.293 411.2C766.613 416.333 763.439 420.767 758.773 424.5C754.199 428.14 748.646 429.96 742.113 429.96C735.486 429.96 729.746 428.467 724.893 425.48C720.039 422.4 716.306 418.153 713.693 412.74C711.173 407.233 709.913 400.887 709.913 393.7C709.913 385.58 711.219 378.533 713.833 372.56C716.446 366.587 720.133 362.013 724.893 358.84C729.653 355.573 735.206 353.94 741.553 353.94C749.953 353.94 756.393 356.507 760.873 361.64C765.446 366.68 767.733 374.38 767.733 384.74H723.913C723.633 387.353 723.493 390.34 723.493 393.7C723.493 399.86 724.473 405.227 726.433 409.8C728.486 414.373 731.146 417.92 734.413 420.44C737.773 422.867 741.273 424.08 744.913 424.08C749.393 424.08 753.359 423.007 756.813 420.86C760.266 418.713 763.159 415.12 765.493 410.08L768.293 411.2ZM740.993 356.6C736.606 356.6 732.826 358.747 729.653 363.04C726.479 367.333 724.519 373.68 723.773 382.08H754.293C754.479 374.8 753.406 368.733 751.073 363.88C748.833 359.027 745.473 356.6 740.993 356.6ZM825.393 353.94C831.926 353.94 836.873 355.713 840.233 359.26C842.006 361.127 843.266 363.46 844.013 366.26C844.76 369.06 845.133 372.84 845.133 377.6V414.98C845.133 418.807 845.926 421.467 847.513 422.96C849.1 424.36 851.853 425.06 855.773 425.06V428C847.186 427.627 841.586 427.44 838.973 427.44C836.36 427.44 831.133 427.627 823.293 428V425.06C826.746 425.06 829.126 424.36 830.433 422.96C831.833 421.467 832.533 418.807 832.533 414.98V374.52C832.533 369.293 831.786 365.327 830.293 362.62C828.8 359.82 825.766 358.42 821.193 358.42C817.366 358.42 813.96 359.54 810.973 361.78C807.986 364.02 805.653 367.1 803.973 371.02C802.386 374.847 801.593 379.14 801.593 383.9V414.98C801.593 418.807 802.246 421.467 803.553 422.96C804.953 424.36 807.38 425.06 810.833 425.06V428C802.993 427.627 797.766 427.44 795.153 427.44C792.54 427.44 786.94 427.627 778.353 428V425.06C782.273 425.06 785.026 424.36 786.613 422.96C788.2 421.467 788.993 418.807 788.993 414.98V371.16C788.993 366.867 788.2 363.74 786.613 361.78C785.026 359.82 782.273 358.84 778.353 358.84V355.9C781.34 356.18 784.233 356.32 787.033 356.32C792.913 356.32 797.766 355.667 801.593 354.36V370.88C803.926 364.907 807.146 360.613 811.253 358C815.453 355.293 820.166 353.94 825.393 353.94ZM884.428 356.04H905.148V358.84H884.428V413.02C884.428 417.22 885.175 420.253 886.668 422.12C888.255 423.987 890.495 424.92 893.388 424.92C896.281 424.92 898.755 423.753 900.808 421.42C902.861 419.087 904.588 415.26 905.988 409.94L908.788 410.64C906.455 423.52 900.388 429.96 890.588 429.96C887.415 429.96 884.801 429.587 882.748 428.84C880.695 428.093 878.875 426.927 877.288 425.34C875.235 423.287 873.788 420.767 872.948 417.78C872.201 414.793 871.828 410.78 871.828 405.74V358.84H858.388V356.04H871.828V334.62C877.055 334.433 881.255 333.78 884.428 332.66V356.04Z" fill="white"/>
<rect x="67" y="619" width="1196" height="67" fill="#D56B38"/>
<path d="M579.666 510H577.905V486.655H569.788V485.015H587.783V486.655H579.666V510ZM602.361 510L601.934 507.061H601.797C600.863 508.257 599.9 509.106 598.909 509.607C597.929 510.097 596.767 510.342 595.422 510.342C593.599 510.342 592.181 509.875 591.167 508.94C590.153 508.006 589.646 506.713 589.646 505.061C589.646 503.25 590.398 501.842 591.902 500.84C593.417 499.837 595.605 499.307 598.464 499.25L602.002 499.148V497.917C602.002 496.152 601.643 494.819 600.925 493.918C600.208 493.018 599.051 492.568 597.456 492.568C595.736 492.568 593.953 493.047 592.107 494.004L591.475 492.534C593.514 491.577 595.531 491.099 597.524 491.099C599.564 491.099 601.085 491.628 602.087 492.688C603.101 493.748 603.608 495.4 603.608 497.644V510H602.361ZM595.525 508.804C597.507 508.804 599.068 508.24 600.208 507.112C601.358 505.972 601.934 504.395 601.934 502.378V500.549L598.687 500.686C596.077 500.811 594.215 501.222 593.098 501.917C591.993 502.6 591.44 503.671 591.44 505.129C591.44 506.292 591.794 507.197 592.5 507.847C593.218 508.485 594.226 508.804 595.525 508.804ZM617.588 510.342C614.728 510.342 612.643 509.271 611.333 507.129H611.213L611.265 508.564C611.31 509.408 611.333 510.33 611.333 511.333V518.408H609.641V491.423H611.077L611.401 494.072H611.504C612.78 492.067 614.819 491.064 617.622 491.064C620.129 491.064 622.037 491.89 623.347 493.542C624.669 495.183 625.33 497.576 625.33 500.72C625.33 503.774 624.635 506.143 623.245 507.83C621.866 509.504 619.98 510.342 617.588 510.342ZM617.554 508.838C619.456 508.838 620.926 508.132 621.963 506.719C623.011 505.306 623.535 503.329 623.535 500.789C623.535 495.331 621.564 492.603 617.622 492.603C615.457 492.603 613.868 493.201 612.854 494.397C611.84 495.582 611.333 497.519 611.333 500.208V500.754C611.333 503.66 611.817 505.733 612.786 506.975C613.765 508.217 615.355 508.838 617.554 508.838ZM646.487 492.893H642.112V510H640.42V492.893H636.968V491.902L640.42 491.27V489.834C640.42 487.555 640.836 485.886 641.667 484.827C642.511 483.756 643.883 483.22 645.786 483.22C646.812 483.22 647.837 483.374 648.862 483.682L648.469 485.151C647.558 484.867 646.652 484.724 645.752 484.724C644.43 484.724 643.49 485.117 642.932 485.903C642.385 486.678 642.112 487.943 642.112 489.697V491.423H646.487V492.893ZM665.439 500.686C665.439 503.717 664.705 506.086 663.235 507.795C661.765 509.493 659.737 510.342 657.151 510.342C655.522 510.342 654.086 509.949 652.844 509.163C651.602 508.376 650.651 507.249 649.99 505.779C649.329 504.309 648.999 502.611 648.999 500.686C648.999 497.655 649.734 495.297 651.204 493.611C652.673 491.913 654.69 491.064 657.253 491.064C659.806 491.064 661.805 491.925 663.252 493.645C664.71 495.354 665.439 497.701 665.439 500.686ZM650.776 500.686C650.776 503.238 651.335 505.232 652.451 506.667C653.579 508.092 655.168 508.804 657.219 508.804C659.27 508.804 660.854 508.092 661.97 506.667C663.098 505.232 663.662 503.238 663.662 500.686C663.662 498.123 663.092 496.134 661.953 494.722C660.825 493.309 659.236 492.603 657.185 492.603C655.134 492.603 653.551 493.309 652.434 494.722C651.329 496.123 650.776 498.111 650.776 500.686ZM677.898 491.064C678.684 491.064 679.527 491.144 680.427 491.304L680.103 492.927C679.328 492.734 678.525 492.637 677.693 492.637C676.109 492.637 674.81 493.309 673.796 494.653C672.782 495.998 672.275 497.695 672.275 499.746V510H670.583V491.423H672.019L672.19 494.773H672.31C673.073 493.406 673.888 492.449 674.753 491.902C675.619 491.344 676.667 491.064 677.898 491.064ZM706.267 510V497.952C706.267 496.083 705.874 494.727 705.088 493.884C704.302 493.03 703.083 492.603 701.431 492.603C699.209 492.603 697.58 493.167 696.543 494.294C695.518 495.411 695.005 497.228 695.005 499.746V510H693.313V491.423H694.749L695.073 493.97H695.176C696.383 492.033 698.531 491.064 701.619 491.064C705.834 491.064 707.942 493.326 707.942 497.849V510H706.267ZM721.46 510.342C718.76 510.342 716.652 509.51 715.137 507.847C713.633 506.183 712.881 503.853 712.881 500.857C712.881 497.895 713.61 495.525 715.068 493.748C716.527 491.959 718.492 491.064 720.964 491.064C723.152 491.064 724.878 491.828 726.143 493.354C727.407 494.881 728.04 496.955 728.04 499.575V500.942H714.658C714.681 503.494 715.273 505.443 716.436 506.787C717.609 508.132 719.284 508.804 721.46 508.804C722.52 508.804 723.448 508.73 724.246 508.582C725.055 508.433 726.074 508.114 727.305 507.625V509.163C726.257 509.618 725.288 509.926 724.399 510.085C723.511 510.256 722.531 510.342 721.46 510.342ZM720.964 492.568C719.176 492.568 717.74 493.161 716.658 494.346C715.575 495.519 714.943 497.217 714.761 499.438H726.245C726.245 497.285 725.778 495.605 724.844 494.397C723.91 493.178 722.616 492.568 720.964 492.568ZM748.018 510L743.95 497.576C743.688 496.733 743.352 495.496 742.942 493.867H742.839L742.48 495.132L741.711 497.61L737.576 510H735.901L730.586 491.423H732.397L735.371 502.19C736.066 504.856 736.522 506.816 736.738 508.069H736.841C737.513 505.403 738.003 503.631 738.311 502.754L742.139 491.423H743.677L747.317 502.72C748.137 505.397 748.639 507.169 748.821 508.035H748.923C749.014 507.294 749.47 505.312 750.291 502.087L753.127 491.423H754.836L749.795 510H748.018Z" fill="white"/>
<path d="M569.617 513.503H755.366V515.247H569.617V513.503Z" fill="white"/>
<rect x="57" y="58" width="1211" height="634" rx="24" stroke="white" stroke-width="20"/>
</svg>
