<svg width="1334" height="750" viewBox="0 0 1334 750" fill="none" xmlns="http://www.w3.org/2000/svg">
<rect x="57" y="58" width="1211" height="634" rx="24" fill="#15364F" stroke="white" stroke-width="20"/>
<path d="M451.52 295.34C455.626 295.34 458.846 295.807 461.18 296.74C463.606 297.58 466.08 298.84 468.6 300.52C470.653 301.827 472.24 302.48 473.36 302.48C474.2 302.48 474.853 302.013 475.32 301.08C475.786 300.053 476.16 298.467 476.44 296.32H479.66C479.193 301.733 478.96 311.253 478.96 324.88H475.74C475.18 317.32 472.986 310.973 469.16 305.84C465.426 300.613 459.966 298 452.78 298C447.74 298 443.633 299.54 440.46 302.62C437.286 305.607 435.7 309.48 435.7 314.24C435.7 317.787 436.493 320.867 438.08 323.48C439.76 326.093 441.86 328.333 444.38 330.2C446.9 332.067 450.493 334.447 455.16 337.34L459.22 339.86C465.1 343.5 469.72 346.72 473.08 349.52C476.533 352.227 479.286 355.353 481.34 358.9C483.393 362.447 484.42 366.6 484.42 371.36C484.42 379.853 481.62 386.433 476.02 391.1C470.42 395.673 463.326 397.96 454.74 397.96C450.26 397.96 446.573 397.493 443.68 396.56C440.88 395.627 438.173 394.367 435.56 392.78C433.506 391.473 431.92 390.82 430.8 390.82C429.96 390.82 429.306 391.333 428.84 392.36C428.373 393.293 428 394.833 427.72 396.98H424.5C424.873 391.847 425.06 380.647 425.06 363.38H428.28C428.933 372.807 431.266 380.46 435.28 386.34C439.293 392.22 445.453 395.16 453.76 395.16C458.8 395.16 463.093 393.62 466.64 390.54C470.186 387.367 471.96 382.7 471.96 376.54C471.96 371.313 470.186 366.88 466.64 363.24C463.186 359.6 457.68 355.493 450.12 350.92C444.613 347.56 440.133 344.573 436.68 341.96C433.32 339.347 430.566 336.22 428.42 332.58C426.273 328.847 425.2 324.507 425.2 319.56C425.2 311.72 427.72 305.747 432.76 301.64C437.8 297.44 444.053 295.34 451.52 295.34ZM517.885 324.04H538.605V326.84H517.885V381.02C517.885 385.22 518.632 388.253 520.125 390.12C521.712 391.987 523.952 392.92 526.845 392.92C529.738 392.92 532.212 391.753 534.265 389.42C536.318 387.087 538.045 383.26 539.445 377.94L542.245 378.64C539.912 391.52 533.845 397.96 524.045 397.96C520.872 397.96 518.258 397.587 516.205 396.84C514.152 396.093 512.332 394.927 510.745 393.34C508.692 391.287 507.245 388.767 506.405 385.78C505.658 382.793 505.285 378.78 505.285 373.74V326.84H491.845V324.04H505.285V302.62C510.512 302.433 514.712 301.78 517.885 300.66V324.04ZM608.397 380.88C608.397 385.173 609.191 388.3 610.777 390.26C612.364 392.22 615.117 393.2 619.037 393.2V396.14C616.144 395.86 613.251 395.72 610.357 395.72C604.477 395.72 599.624 396.373 595.797 397.68V381.16C593.557 386.947 590.384 391.193 586.277 393.9C582.171 396.607 577.691 397.96 572.837 397.96C566.491 397.96 561.637 396.187 558.277 392.64C556.597 390.773 555.384 388.393 554.637 385.5C553.984 382.607 553.657 378.873 553.657 374.3V339.16C553.657 334.867 552.864 331.74 551.277 329.78C549.691 327.82 546.937 326.84 543.017 326.84V323.9C545.911 324.18 548.804 324.32 551.697 324.32C557.577 324.32 562.431 323.667 566.257 322.36V377.38C566.257 380.927 566.444 383.82 566.817 386.06C567.284 388.207 568.264 389.98 569.757 391.38C571.344 392.78 573.724 393.48 576.897 393.48C580.444 393.48 583.664 392.36 586.557 390.12C589.451 387.88 591.691 384.847 593.277 381.02C594.957 377.1 595.797 372.807 595.797 368.14V339.16C595.797 334.867 595.004 331.74 593.417 329.78C591.831 327.82 589.077 326.84 585.157 326.84V323.9C588.051 324.18 590.944 324.32 593.837 324.32C599.717 324.32 604.571 323.667 608.397 322.36V380.88ZM689.885 380.74C689.885 385.033 690.678 388.16 692.265 390.12C693.852 392.08 696.605 393.06 700.525 393.06V396C697.632 395.72 694.738 395.58 691.845 395.58C685.965 395.58 681.112 396.233 677.285 397.54V385.08C675.605 389.28 673.085 392.5 669.725 394.74C666.365 396.887 662.258 397.96 657.405 397.96C648.445 397.96 641.398 394.74 636.265 388.3C631.225 381.86 628.752 372.433 628.845 360.02C628.845 351.9 630.245 344.993 633.045 339.3C635.938 333.513 639.765 329.173 644.525 326.28C649.378 323.387 654.698 321.94 660.485 321.94C664.032 321.94 667.252 322.64 670.145 324.04C673.132 325.347 675.512 327.4 677.285 330.2V303.04C677.285 298.747 676.492 295.62 674.905 293.66C673.318 291.7 670.565 290.72 666.645 290.72V287.78C669.632 288.06 672.525 288.2 675.325 288.2C681.205 288.2 686.058 287.547 689.885 286.24V380.74ZM661.465 393.76C665.105 393.76 668.372 392.36 671.265 389.56C674.158 386.76 676.165 382.793 677.285 377.66V335.94C674.765 328.753 669.538 325.16 661.605 325.16C655.818 325.16 651.152 328.147 647.605 334.12C644.058 340 642.332 348.633 642.425 360.02C642.332 371.22 643.918 379.667 647.185 385.36C650.452 390.96 655.212 393.76 661.465 393.76ZM768.293 379.2C766.613 384.333 763.439 388.767 758.773 392.5C754.199 396.14 748.646 397.96 742.113 397.96C735.486 397.96 729.746 396.467 724.893 393.48C720.039 390.4 716.306 386.153 713.693 380.74C711.173 375.233 709.913 368.887 709.913 361.7C709.913 353.58 711.219 346.533 713.833 340.56C716.446 334.587 720.133 330.013 724.893 326.84C729.653 323.573 735.206 321.94 741.553 321.94C749.953 321.94 756.393 324.507 760.873 329.64C765.446 334.68 767.733 342.38 767.733 352.74H723.913C723.633 355.353 723.493 358.34 723.493 361.7C723.493 367.86 724.473 373.227 726.433 377.8C728.486 382.373 731.146 385.92 734.413 388.44C737.773 390.867 741.273 392.08 744.913 392.08C749.393 392.08 753.359 391.007 756.813 388.86C760.266 386.713 763.159 383.12 765.493 378.08L768.293 379.2ZM740.993 324.6C736.606 324.6 732.826 326.747 729.653 331.04C726.479 335.333 724.519 341.68 723.773 350.08H754.293C754.479 342.8 753.406 336.733 751.073 331.88C748.833 327.027 745.473 324.6 740.993 324.6ZM825.393 321.94C831.926 321.94 836.873 323.713 840.233 327.26C842.006 329.127 843.266 331.46 844.013 334.26C844.76 337.06 845.133 340.84 845.133 345.6V382.98C845.133 386.807 845.926 389.467 847.513 390.96C849.1 392.36 851.853 393.06 855.773 393.06V396C847.186 395.627 841.586 395.44 838.973 395.44C836.36 395.44 831.133 395.627 823.293 396V393.06C826.746 393.06 829.126 392.36 830.433 390.96C831.833 389.467 832.533 386.807 832.533 382.98V342.52C832.533 337.293 831.786 333.327 830.293 330.62C828.8 327.82 825.766 326.42 821.193 326.42C817.366 326.42 813.96 327.54 810.973 329.78C807.986 332.02 805.653 335.1 803.973 339.02C802.386 342.847 801.593 347.14 801.593 351.9V382.98C801.593 386.807 802.246 389.467 803.553 390.96C804.953 392.36 807.38 393.06 810.833 393.06V396C802.993 395.627 797.766 395.44 795.153 395.44C792.54 395.44 786.94 395.627 778.353 396V393.06C782.273 393.06 785.026 392.36 786.613 390.96C788.2 389.467 788.993 386.807 788.993 382.98V339.16C788.993 334.867 788.2 331.74 786.613 329.78C785.026 327.82 782.273 326.84 778.353 326.84V323.9C781.34 324.18 784.233 324.32 787.033 324.32C792.913 324.32 797.766 323.667 801.593 322.36V338.88C803.926 332.907 807.146 328.613 811.253 326C815.453 323.293 820.166 321.94 825.393 321.94ZM884.428 324.04H905.148V326.84H884.428V381.02C884.428 385.22 885.175 388.253 886.668 390.12C888.255 391.987 890.495 392.92 893.388 392.92C896.281 392.92 898.755 391.753 900.808 389.42C902.861 387.087 904.588 383.26 905.988 377.94L908.788 378.64C906.455 391.52 900.388 397.96 890.588 397.96C887.415 397.96 884.801 397.587 882.748 396.84C880.695 396.093 878.875 394.927 877.288 393.34C875.235 391.287 873.788 388.767 872.948 385.78C872.201 382.793 871.828 378.78 871.828 373.74V326.84H858.388V324.04H871.828V302.62C877.055 302.433 881.255 301.78 884.428 300.66V324.04Z" fill="white"/>
<rect x="67" y="619" width="1196" height="67" fill="#D56B38"/>
<path d="M579.666 478H577.905V454.655H569.788V453.015H587.783V454.655H579.666V478ZM602.361 478L601.934 475.061H601.797C600.863 476.257 599.9 477.106 598.909 477.607C597.929 478.097 596.767 478.342 595.422 478.342C593.599 478.342 592.181 477.875 591.167 476.94C590.153 476.006 589.646 474.713 589.646 473.061C589.646 471.25 590.398 469.842 591.902 468.84C593.417 467.837 595.605 467.307 598.464 467.25L602.002 467.148V465.917C602.002 464.152 601.643 462.819 600.925 461.918C600.208 461.018 599.051 460.568 597.456 460.568C595.736 460.568 593.953 461.047 592.107 462.004L591.475 460.534C593.514 459.577 595.531 459.099 597.524 459.099C599.564 459.099 601.085 459.628 602.087 460.688C603.101 461.748 603.608 463.4 603.608 465.644V478H602.361ZM595.525 476.804C597.507 476.804 599.068 476.24 600.208 475.112C601.358 473.972 601.934 472.395 601.934 470.378V468.549L598.687 468.686C596.077 468.811 594.215 469.222 593.098 469.917C591.993 470.6 591.44 471.671 591.44 473.129C591.44 474.292 591.794 475.197 592.5 475.847C593.218 476.485 594.226 476.804 595.525 476.804ZM617.588 478.342C614.728 478.342 612.643 477.271 611.333 475.129H611.213L611.265 476.564C611.31 477.408 611.333 478.33 611.333 479.333V486.408H609.641V459.423H611.077L611.401 462.072H611.504C612.78 460.067 614.819 459.064 617.622 459.064C620.129 459.064 622.037 459.89 623.347 461.542C624.669 463.183 625.33 465.576 625.33 468.72C625.33 471.774 624.635 474.143 623.245 475.83C621.866 477.504 619.98 478.342 617.588 478.342ZM617.554 476.838C619.456 476.838 620.926 476.132 621.963 474.719C623.011 473.306 623.535 471.329 623.535 468.789C623.535 463.331 621.564 460.603 617.622 460.603C615.457 460.603 613.868 461.201 612.854 462.397C611.84 463.582 611.333 465.519 611.333 468.208V468.754C611.333 471.66 611.817 473.733 612.786 474.975C613.765 476.217 615.355 476.838 617.554 476.838ZM646.487 460.893H642.112V478H640.42V460.893H636.968V459.902L640.42 459.27V457.834C640.42 455.555 640.836 453.886 641.667 452.827C642.511 451.756 643.883 451.22 645.786 451.22C646.812 451.22 647.837 451.374 648.862 451.682L648.469 453.151C647.558 452.867 646.652 452.724 645.752 452.724C644.43 452.724 643.49 453.117 642.932 453.903C642.385 454.678 642.112 455.943 642.112 457.697V459.423H646.487V460.893ZM665.439 468.686C665.439 471.717 664.705 474.086 663.235 475.795C661.765 477.493 659.737 478.342 657.151 478.342C655.522 478.342 654.086 477.949 652.844 477.163C651.602 476.376 650.651 475.249 649.99 473.779C649.329 472.309 648.999 470.611 648.999 468.686C648.999 465.655 649.734 463.297 651.204 461.611C652.673 459.913 654.69 459.064 657.253 459.064C659.806 459.064 661.805 459.925 663.252 461.645C664.71 463.354 665.439 465.701 665.439 468.686ZM650.776 468.686C650.776 471.238 651.335 473.232 652.451 474.667C653.579 476.092 655.168 476.804 657.219 476.804C659.27 476.804 660.854 476.092 661.97 474.667C663.098 473.232 663.662 471.238 663.662 468.686C663.662 466.123 663.092 464.134 661.953 462.722C660.825 461.309 659.236 460.603 657.185 460.603C655.134 460.603 653.551 461.309 652.434 462.722C651.329 464.123 650.776 466.111 650.776 468.686ZM677.898 459.064C678.684 459.064 679.527 459.144 680.427 459.304L680.103 460.927C679.328 460.734 678.525 460.637 677.693 460.637C676.109 460.637 674.81 461.309 673.796 462.653C672.782 463.998 672.275 465.695 672.275 467.746V478H670.583V459.423H672.019L672.19 462.773H672.31C673.073 461.406 673.888 460.449 674.753 459.902C675.619 459.344 676.667 459.064 677.898 459.064ZM706.267 478V465.952C706.267 464.083 705.874 462.727 705.088 461.884C704.302 461.03 703.083 460.603 701.431 460.603C699.209 460.603 697.58 461.167 696.543 462.294C695.518 463.411 695.005 465.228 695.005 467.746V478H693.313V459.423H694.749L695.073 461.97H695.176C696.383 460.033 698.531 459.064 701.619 459.064C705.834 459.064 707.942 461.326 707.942 465.849V478H706.267ZM721.46 478.342C718.76 478.342 716.652 477.51 715.137 475.847C713.633 474.183 712.881 471.853 712.881 468.857C712.881 465.895 713.61 463.525 715.068 461.748C716.527 459.959 718.492 459.064 720.964 459.064C723.152 459.064 724.878 459.828 726.143 461.354C727.407 462.881 728.04 464.955 728.04 467.575V468.942H714.658C714.681 471.494 715.273 473.443 716.436 474.787C717.609 476.132 719.284 476.804 721.46 476.804C722.52 476.804 723.448 476.73 724.246 476.582C725.055 476.433 726.074 476.114 727.305 475.625V477.163C726.257 477.618 725.288 477.926 724.399 478.085C723.511 478.256 722.531 478.342 721.46 478.342ZM720.964 460.568C719.176 460.568 717.74 461.161 716.658 462.346C715.575 463.519 714.943 465.217 714.761 467.438H726.245C726.245 465.285 725.778 463.605 724.844 462.397C723.91 461.178 722.616 460.568 720.964 460.568ZM748.018 478L743.95 465.576C743.688 464.733 743.352 463.496 742.942 461.867H742.839L742.48 463.132L741.711 465.61L737.576 478H735.901L730.586 459.423H732.397L735.371 470.19C736.066 472.856 736.522 474.816 736.738 476.069H736.841C737.513 473.403 738.003 471.631 738.311 470.754L742.139 459.423H743.677L747.317 470.72C748.137 473.397 748.639 475.169 748.821 476.035H748.923C749.014 475.294 749.47 473.312 750.291 470.087L753.127 459.423H754.836L749.795 478H748.018Z" fill="white"/>
<path d="M569.617 481.503H755.366V483.247H569.617V481.503Z" fill="white"/>
<rect x="57" y="58" width="1211" height="634" rx="24" stroke="white" stroke-width="20"/>
</svg>
