<svg width="1334" height="750" viewBox="0 0 1334 750" fill="none" xmlns="http://www.w3.org/2000/svg">
<rect x="57" y="58" width="1211" height="634" rx="24" fill="#15364F" stroke="white" stroke-width="20"/>
<path d="M491.86 296.88C491.207 303.507 490.88 309.48 490.88 314.8C490.88 319.467 491.02 323.293 491.3 326.28H488.08C487.334 319.093 486.4 313.773 485.28 310.32C484.16 306.773 482.2 304.207 479.4 302.62C476.6 300.94 472.307 300.1 466.52 300.1H458.96V379.76C458.96 383.68 459.334 386.527 460.08 388.3C460.827 390.073 462.134 391.287 464 391.94C465.867 392.593 468.9 393.013 473.1 393.2V396C468.247 395.72 461.387 395.58 452.52 395.58C443.187 395.58 436.28 395.72 431.8 396V393.2C436 393.013 439.034 392.593 440.9 391.94C442.767 391.287 444.074 390.073 444.82 388.3C445.567 386.527 445.94 383.68 445.94 379.76V300.1H438.38C432.594 300.1 428.3 300.94 425.5 302.62C422.7 304.207 420.74 306.773 419.62 310.32C418.5 313.773 417.567 319.093 416.82 326.28H413.6C413.88 323.293 414.02 319.467 414.02 314.8C414.02 309.48 413.694 303.507 413.04 296.88C420.787 297.16 433.947 297.3 452.52 297.3C471 297.3 484.114 297.16 491.86 296.88ZM554.738 379.2C553.058 384.333 549.885 388.767 545.218 392.5C540.645 396.14 535.091 397.96 528.558 397.96C521.931 397.96 516.191 396.467 511.338 393.48C506.485 390.4 502.751 386.153 500.138 380.74C497.618 375.233 496.358 368.887 496.358 361.7C496.358 353.58 497.665 346.533 500.278 340.56C502.891 334.587 506.578 330.013 511.338 326.84C516.098 323.573 521.651 321.94 527.998 321.94C536.398 321.94 542.838 324.507 547.318 329.64C551.891 334.68 554.178 342.38 554.178 352.74H510.358C510.078 355.353 509.938 358.34 509.938 361.7C509.938 367.86 510.918 373.227 512.878 377.8C514.931 382.373 517.591 385.92 520.858 388.44C524.218 390.867 527.718 392.08 531.358 392.08C535.838 392.08 539.805 391.007 543.258 388.86C546.711 386.713 549.605 383.12 551.938 378.08L554.738 379.2ZM527.438 324.6C523.051 324.6 519.271 326.747 516.098 331.04C512.925 335.333 510.965 341.68 510.218 350.08H540.738C540.925 342.8 539.851 336.733 537.518 331.88C535.278 327.027 531.918 324.6 527.438 324.6ZM583.558 396.98C577.678 396.98 573.292 395.533 570.398 392.64C567.598 389.653 566.198 385.547 566.198 380.32C566.198 376.12 567.318 372.667 569.558 369.96C571.892 367.253 574.598 365.107 577.678 363.52C580.852 361.933 585.005 360.253 590.138 358.48C595.365 356.707 599.238 355.073 601.758 353.58C604.278 352.087 605.538 350.08 605.538 347.56V338.88C605.538 333.467 604.372 329.78 602.038 327.82C599.798 325.767 596.625 324.74 592.518 324.74C585.985 324.74 581.365 326.42 578.658 329.78C580.525 330.247 582.065 331.227 583.278 332.72C584.585 334.213 585.238 336.08 585.238 338.32C585.238 340.653 584.492 342.52 582.998 343.92C581.505 345.227 579.592 345.88 577.258 345.88C574.645 345.88 572.685 345.087 571.378 343.5C570.072 341.82 569.418 339.813 569.418 337.48C569.418 335.24 569.932 333.373 570.958 331.88C572.078 330.387 573.712 328.893 575.858 327.4C578.098 325.813 580.945 324.507 584.398 323.48C587.852 322.453 591.632 321.94 595.738 321.94C603.018 321.94 608.525 323.667 612.258 327.12C614.592 329.267 616.132 331.88 616.878 334.96C617.718 337.947 618.138 341.913 618.138 346.86V385.78C618.138 388.113 618.465 389.793 619.118 390.82C619.772 391.847 620.892 392.36 622.478 392.36C623.598 392.36 624.625 392.127 625.558 391.66C626.585 391.1 627.658 390.353 628.778 389.42L630.318 391.8C627.892 393.667 625.792 395.02 624.018 395.86C622.338 396.607 620.192 396.98 617.578 396.98C613.098 396.98 609.972 395.86 608.198 393.62C606.425 391.38 605.538 388.347 605.538 384.52C602.738 389.187 599.518 392.453 595.878 394.32C592.238 396.093 588.132 396.98 583.558 396.98ZM589.718 391.38C595.878 391.38 601.152 387.833 605.538 380.74V353.3C604.698 354.607 603.532 355.68 602.038 356.52C600.545 357.36 598.258 358.48 595.178 359.88C591.632 361.373 588.738 362.82 586.498 364.22C584.352 365.527 582.485 367.347 580.898 369.68C579.312 372.013 578.518 375 578.518 378.64C578.518 382.84 579.545 386.013 581.598 388.16C583.652 390.307 586.358 391.38 589.718 391.38ZM669.525 321.94C675.778 321.94 681.192 323.433 685.765 326.42C690.152 329.313 692.345 332.907 692.345 337.2C692.345 339.627 691.645 341.54 690.245 342.94C688.845 344.34 687.072 345.04 684.925 345.04C682.778 345.04 680.958 344.433 679.465 343.22C677.972 341.913 677.225 340.187 677.225 338.04C677.225 336.08 677.785 334.447 678.905 333.14C680.025 331.74 681.425 330.807 683.105 330.34C682.172 328.66 680.492 327.26 678.065 326.14C675.732 325.02 673.212 324.46 670.505 324.46C667.052 324.46 663.832 325.58 660.845 327.82C657.858 329.967 655.385 333.607 653.425 338.74C651.465 343.78 650.485 350.453 650.485 358.76C650.485 370.333 652.352 378.78 656.085 384.1C659.818 389.327 664.672 391.94 670.645 391.94C674.658 391.94 678.438 390.773 681.985 388.44C685.625 386.107 688.612 382.467 690.945 377.52L693.605 378.5C692.018 383.82 689.032 388.393 684.645 392.22C680.352 396.047 674.752 397.96 667.845 397.96C662.058 397.96 656.785 396.467 652.025 393.48C647.358 390.493 643.672 386.2 640.965 380.6C638.258 374.907 636.905 368.327 636.905 360.86C636.905 353.3 638.258 346.58 640.965 340.7C643.765 334.82 647.638 330.247 652.585 326.98C657.532 323.62 663.178 321.94 669.525 321.94ZM724.591 338.74C726.924 332.86 730.144 328.613 734.251 326C738.451 323.293 743.164 321.94 748.391 321.94C754.924 321.94 759.871 323.713 763.231 327.26C765.004 329.127 766.264 331.46 767.011 334.26C767.757 337.06 768.131 340.84 768.131 345.6V382.98C768.131 386.807 768.924 389.467 770.511 390.96C772.097 392.36 774.851 393.06 778.771 393.06V396C770.184 395.627 764.584 395.44 761.971 395.44C759.357 395.44 754.131 395.627 746.291 396V393.06C749.744 393.06 752.124 392.36 753.431 390.96C754.831 389.467 755.531 386.807 755.531 382.98V342.52C755.531 337.293 754.784 333.327 753.291 330.62C751.797 327.82 748.764 326.42 744.191 326.42C740.364 326.42 736.957 327.493 733.971 329.64C731.077 331.787 728.791 334.82 727.111 338.74C725.431 342.567 724.591 346.907 724.591 351.76V382.98C724.591 386.807 725.244 389.467 726.551 390.96C727.951 392.36 730.377 393.06 733.831 393.06V396C725.991 395.627 720.764 395.44 718.151 395.44C715.537 395.44 709.937 395.627 701.351 396V393.06C705.271 393.06 708.024 392.36 709.611 390.96C711.197 389.467 711.991 386.807 711.991 382.98V303.18C711.991 298.887 711.197 295.76 709.611 293.8C708.024 291.84 705.271 290.86 701.351 290.86V287.92C704.337 288.2 707.231 288.34 710.031 288.34C715.911 288.34 720.764 287.687 724.591 286.38V338.74ZM845.675 379.2C843.995 384.333 840.822 388.767 836.155 392.5C831.582 396.14 826.029 397.96 819.495 397.96C812.869 397.96 807.129 396.467 802.275 393.48C797.422 390.4 793.689 386.153 791.075 380.74C788.555 375.233 787.295 368.887 787.295 361.7C787.295 353.58 788.602 346.533 791.215 340.56C793.829 334.587 797.515 330.013 802.275 326.84C807.035 323.573 812.589 321.94 818.935 321.94C827.335 321.94 833.775 324.507 838.255 329.64C842.829 334.68 845.115 342.38 845.115 352.74H801.295C801.015 355.353 800.875 358.34 800.875 361.7C800.875 367.86 801.855 373.227 803.815 377.8C805.869 382.373 808.529 385.92 811.795 388.44C815.155 390.867 818.655 392.08 822.295 392.08C826.775 392.08 830.742 391.007 834.195 388.86C837.649 386.713 840.542 383.12 842.875 378.08L845.675 379.2ZM818.375 324.6C813.989 324.6 810.209 326.747 807.035 331.04C803.862 335.333 801.902 341.68 801.155 350.08H831.675C831.862 342.8 830.789 336.733 828.455 331.88C826.215 327.027 822.855 324.6 818.375 324.6ZM899.276 321.94C903.009 321.94 906.042 323.013 908.376 325.16C910.802 327.307 912.016 329.92 912.016 333C912.016 335.427 911.269 337.527 909.776 339.3C908.376 340.98 906.462 341.82 904.036 341.82C901.982 341.82 900.209 341.167 898.716 339.86C897.316 338.553 896.616 336.78 896.616 334.54C896.616 331.46 898.202 328.94 901.376 326.98C900.722 326.047 899.742 325.58 898.436 325.58C894.796 325.58 891.482 327.027 888.496 329.92C885.509 332.72 883.176 336.173 881.496 340.28C879.816 344.387 878.976 348.26 878.976 351.9V381.58C878.976 385.873 880.189 388.86 882.616 390.54C885.136 392.22 888.869 393.06 893.816 393.06V396L890.456 395.86C880.936 395.58 874.869 395.44 872.256 395.44C869.829 395.44 864.322 395.627 855.736 396V393.06C859.656 393.06 862.409 392.36 863.996 390.96C865.582 389.467 866.376 386.807 866.376 382.98V339.16C866.376 334.867 865.582 331.74 863.996 329.78C862.409 327.82 859.656 326.84 855.736 326.84V323.9C858.722 324.18 861.616 324.32 864.416 324.32C870.296 324.32 875.149 323.667 878.976 322.36V339.86C880.656 335.193 883.316 331.04 886.956 327.4C890.689 323.76 894.796 321.94 899.276 321.94Z" fill="white"/>
<rect x="67" y="619" width="1196" height="67" fill="#D56B38"/>
<path d="M579.666 478H577.905V454.655H569.788V453.015H587.783V454.655H579.666V478ZM602.361 478L601.934 475.061H601.797C600.863 476.257 599.9 477.106 598.909 477.607C597.929 478.097 596.767 478.342 595.422 478.342C593.599 478.342 592.181 477.875 591.167 476.94C590.153 476.006 589.646 474.713 589.646 473.061C589.646 471.25 590.398 469.842 591.902 468.84C593.417 467.837 595.605 467.307 598.464 467.25L602.002 467.148V465.917C602.002 464.152 601.643 462.819 600.925 461.918C600.208 461.018 599.051 460.568 597.456 460.568C595.736 460.568 593.953 461.047 592.107 462.004L591.475 460.534C593.514 459.577 595.531 459.099 597.524 459.099C599.564 459.099 601.085 459.628 602.087 460.688C603.101 461.748 603.608 463.4 603.608 465.644V478H602.361ZM595.525 476.804C597.507 476.804 599.068 476.24 600.208 475.112C601.358 473.972 601.934 472.395 601.934 470.378V468.549L598.687 468.686C596.077 468.811 594.215 469.222 593.098 469.917C591.993 470.6 591.44 471.671 591.44 473.129C591.44 474.292 591.794 475.197 592.5 475.847C593.218 476.485 594.226 476.804 595.525 476.804ZM617.588 478.342C614.728 478.342 612.643 477.271 611.333 475.129H611.213L611.265 476.564C611.31 477.408 611.333 478.33 611.333 479.333V486.408H609.641V459.423H611.077L611.401 462.072H611.504C612.78 460.067 614.819 459.064 617.622 459.064C620.129 459.064 622.037 459.89 623.347 461.542C624.669 463.183 625.33 465.576 625.33 468.72C625.33 471.774 624.635 474.143 623.245 475.83C621.866 477.504 619.98 478.342 617.588 478.342ZM617.554 476.838C619.456 476.838 620.926 476.132 621.963 474.719C623.011 473.306 623.535 471.329 623.535 468.789C623.535 463.331 621.564 460.603 617.622 460.603C615.457 460.603 613.868 461.201 612.854 462.397C611.84 463.582 611.333 465.519 611.333 468.208V468.754C611.333 471.66 611.817 473.733 612.786 474.975C613.765 476.217 615.355 476.838 617.554 476.838ZM646.487 460.893H642.112V478H640.42V460.893H636.968V459.902L640.42 459.27V457.834C640.42 455.555 640.836 453.886 641.667 452.827C642.511 451.756 643.883 451.22 645.786 451.22C646.812 451.22 647.837 451.374 648.862 451.682L648.469 453.151C647.558 452.867 646.652 452.724 645.752 452.724C644.43 452.724 643.49 453.117 642.932 453.903C642.385 454.678 642.112 455.943 642.112 457.697V459.423H646.487V460.893ZM665.439 468.686C665.439 471.717 664.705 474.086 663.235 475.795C661.765 477.493 659.737 478.342 657.151 478.342C655.522 478.342 654.086 477.949 652.844 477.163C651.602 476.376 650.651 475.249 649.99 473.779C649.329 472.309 648.999 470.611 648.999 468.686C648.999 465.655 649.734 463.297 651.204 461.611C652.673 459.913 654.69 459.064 657.253 459.064C659.806 459.064 661.805 459.925 663.252 461.645C664.71 463.354 665.439 465.701 665.439 468.686ZM650.776 468.686C650.776 471.238 651.335 473.232 652.451 474.667C653.579 476.092 655.168 476.804 657.219 476.804C659.27 476.804 660.854 476.092 661.97 474.667C663.098 473.232 663.662 471.238 663.662 468.686C663.662 466.123 663.092 464.134 661.953 462.722C660.825 461.309 659.236 460.603 657.185 460.603C655.134 460.603 653.551 461.309 652.434 462.722C651.329 464.123 650.776 466.111 650.776 468.686ZM677.898 459.064C678.684 459.064 679.527 459.144 680.427 459.304L680.103 460.927C679.328 460.734 678.525 460.637 677.693 460.637C676.109 460.637 674.81 461.309 673.796 462.653C672.782 463.998 672.275 465.695 672.275 467.746V478H670.583V459.423H672.019L672.19 462.773H672.31C673.073 461.406 673.888 460.449 674.753 459.902C675.619 459.344 676.667 459.064 677.898 459.064ZM706.267 478V465.952C706.267 464.083 705.874 462.727 705.088 461.884C704.302 461.03 703.083 460.603 701.431 460.603C699.209 460.603 697.58 461.167 696.543 462.294C695.518 463.411 695.005 465.228 695.005 467.746V478H693.313V459.423H694.749L695.073 461.97H695.176C696.383 460.033 698.531 459.064 701.619 459.064C705.834 459.064 707.942 461.326 707.942 465.849V478H706.267ZM721.46 478.342C718.76 478.342 716.652 477.51 715.137 475.847C713.633 474.183 712.881 471.853 712.881 468.857C712.881 465.895 713.61 463.525 715.068 461.748C716.527 459.959 718.492 459.064 720.964 459.064C723.152 459.064 724.878 459.828 726.143 461.354C727.407 462.881 728.04 464.955 728.04 467.575V468.942H714.658C714.681 471.494 715.273 473.443 716.436 474.787C717.609 476.132 719.284 476.804 721.46 476.804C722.52 476.804 723.448 476.73 724.246 476.582C725.055 476.433 726.074 476.114 727.305 475.625V477.163C726.257 477.618 725.288 477.926 724.399 478.085C723.511 478.256 722.531 478.342 721.46 478.342ZM720.964 460.568C719.176 460.568 717.74 461.161 716.658 462.346C715.575 463.519 714.943 465.217 714.761 467.438H726.245C726.245 465.285 725.778 463.605 724.844 462.397C723.91 461.178 722.616 460.568 720.964 460.568ZM748.018 478L743.95 465.576C743.688 464.733 743.352 463.496 742.942 461.867H742.839L742.48 463.132L741.711 465.61L737.576 478H735.901L730.586 459.423H732.397L735.371 470.19C736.066 472.856 736.522 474.816 736.738 476.069H736.841C737.513 473.403 738.003 471.631 738.311 470.754L742.139 459.423H743.677L747.317 470.72C748.137 473.397 748.639 475.169 748.821 476.035H748.923C749.014 475.294 749.47 473.312 750.291 470.087L753.127 459.423H754.836L749.795 478H748.018Z" fill="white"/>
<path d="M569.617 481.503H755.366V483.247H569.617V481.503Z" fill="white"/>
<rect x="57" y="58" width="1211" height="634" rx="24" stroke="white" stroke-width="20"/>
</svg>
