<svg width="1334" height="750" viewBox="0 0 1334 750" fill="none" xmlns="http://www.w3.org/2000/svg">
<rect x="57" y="58" width="1211" height="634" rx="24" fill="#15364F" stroke="white" stroke-width="20"/>
<path d="M491.86 328.88C491.207 335.507 490.88 341.48 490.88 346.8C490.88 351.467 491.02 355.293 491.3 358.28H488.08C487.334 351.093 486.4 345.773 485.28 342.32C484.16 338.773 482.2 336.207 479.4 334.62C476.6 332.94 472.307 332.1 466.52 332.1H458.96V411.76C458.96 415.68 459.334 418.527 460.08 420.3C460.827 422.073 462.134 423.287 464 423.94C465.867 424.593 468.9 425.013 473.1 425.2V428C468.247 427.72 461.387 427.58 452.52 427.58C443.187 427.58 436.28 427.72 431.8 428V425.2C436 425.013 439.034 424.593 440.9 423.94C442.767 423.287 444.074 422.073 444.82 420.3C445.567 418.527 445.94 415.68 445.94 411.76V332.1H438.38C432.594 332.1 428.3 332.94 425.5 334.62C422.7 336.207 420.74 338.773 419.62 342.32C418.5 345.773 417.567 351.093 416.82 358.28H413.6C413.88 355.293 414.02 351.467 414.02 346.8C414.02 341.48 413.694 335.507 413.04 328.88C420.787 329.16 433.947 329.3 452.52 329.3C471 329.3 484.114 329.16 491.86 328.88ZM554.738 411.2C553.058 416.333 549.885 420.767 545.218 424.5C540.645 428.14 535.091 429.96 528.558 429.96C521.931 429.96 516.191 428.467 511.338 425.48C506.485 422.4 502.751 418.153 500.138 412.74C497.618 407.233 496.358 400.887 496.358 393.7C496.358 385.58 497.665 378.533 500.278 372.56C502.891 366.587 506.578 362.013 511.338 358.84C516.098 355.573 521.651 353.94 527.998 353.94C536.398 353.94 542.838 356.507 547.318 361.64C551.891 366.68 554.178 374.38 554.178 384.74H510.358C510.078 387.353 509.938 390.34 509.938 393.7C509.938 399.86 510.918 405.227 512.878 409.8C514.931 414.373 517.591 417.92 520.858 420.44C524.218 422.867 527.718 424.08 531.358 424.08C535.838 424.08 539.805 423.007 543.258 420.86C546.711 418.713 549.605 415.12 551.938 410.08L554.738 411.2ZM527.438 356.6C523.051 356.6 519.271 358.747 516.098 363.04C512.925 367.333 510.965 373.68 510.218 382.08H540.738C540.925 374.8 539.851 368.733 537.518 363.88C535.278 359.027 531.918 356.6 527.438 356.6ZM583.558 428.98C577.678 428.98 573.292 427.533 570.398 424.64C567.598 421.653 566.198 417.547 566.198 412.32C566.198 408.12 567.318 404.667 569.558 401.96C571.892 399.253 574.598 397.107 577.678 395.52C580.852 393.933 585.005 392.253 590.138 390.48C595.365 388.707 599.238 387.073 601.758 385.58C604.278 384.087 605.538 382.08 605.538 379.56V370.88C605.538 365.467 604.372 361.78 602.038 359.82C599.798 357.767 596.625 356.74 592.518 356.74C585.985 356.74 581.365 358.42 578.658 361.78C580.525 362.247 582.065 363.227 583.278 364.72C584.585 366.213 585.238 368.08 585.238 370.32C585.238 372.653 584.492 374.52 582.998 375.92C581.505 377.227 579.592 377.88 577.258 377.88C574.645 377.88 572.685 377.087 571.378 375.5C570.072 373.82 569.418 371.813 569.418 369.48C569.418 367.24 569.932 365.373 570.958 363.88C572.078 362.387 573.712 360.893 575.858 359.4C578.098 357.813 580.945 356.507 584.398 355.48C587.852 354.453 591.632 353.94 595.738 353.94C603.018 353.94 608.525 355.667 612.258 359.12C614.592 361.267 616.132 363.88 616.878 366.96C617.718 369.947 618.138 373.913 618.138 378.86V417.78C618.138 420.113 618.465 421.793 619.118 422.82C619.772 423.847 620.892 424.36 622.478 424.36C623.598 424.36 624.625 424.127 625.558 423.66C626.585 423.1 627.658 422.353 628.778 421.42L630.318 423.8C627.892 425.667 625.792 427.02 624.018 427.86C622.338 428.607 620.192 428.98 617.578 428.98C613.098 428.98 609.972 427.86 608.198 425.62C606.425 423.38 605.538 420.347 605.538 416.52C602.738 421.187 599.518 424.453 595.878 426.32C592.238 428.093 588.132 428.98 583.558 428.98ZM589.718 423.38C595.878 423.38 601.152 419.833 605.538 412.74V385.3C604.698 386.607 603.532 387.68 602.038 388.52C600.545 389.36 598.258 390.48 595.178 391.88C591.632 393.373 588.738 394.82 586.498 396.22C584.352 397.527 582.485 399.347 580.898 401.68C579.312 404.013 578.518 407 578.518 410.64C578.518 414.84 579.545 418.013 581.598 420.16C583.652 422.307 586.358 423.38 589.718 423.38ZM669.525 353.94C675.778 353.94 681.192 355.433 685.765 358.42C690.152 361.313 692.345 364.907 692.345 369.2C692.345 371.627 691.645 373.54 690.245 374.94C688.845 376.34 687.072 377.04 684.925 377.04C682.778 377.04 680.958 376.433 679.465 375.22C677.972 373.913 677.225 372.187 677.225 370.04C677.225 368.08 677.785 366.447 678.905 365.14C680.025 363.74 681.425 362.807 683.105 362.34C682.172 360.66 680.492 359.26 678.065 358.14C675.732 357.02 673.212 356.46 670.505 356.46C667.052 356.46 663.832 357.58 660.845 359.82C657.858 361.967 655.385 365.607 653.425 370.74C651.465 375.78 650.485 382.453 650.485 390.76C650.485 402.333 652.352 410.78 656.085 416.1C659.818 421.327 664.672 423.94 670.645 423.94C674.658 423.94 678.438 422.773 681.985 420.44C685.625 418.107 688.612 414.467 690.945 409.52L693.605 410.5C692.018 415.82 689.032 420.393 684.645 424.22C680.352 428.047 674.752 429.96 667.845 429.96C662.058 429.96 656.785 428.467 652.025 425.48C647.358 422.493 643.672 418.2 640.965 412.6C638.258 406.907 636.905 400.327 636.905 392.86C636.905 385.3 638.258 378.58 640.965 372.7C643.765 366.82 647.638 362.247 652.585 358.98C657.532 355.62 663.178 353.94 669.525 353.94ZM724.591 370.74C726.924 364.86 730.144 360.613 734.251 358C738.451 355.293 743.164 353.94 748.391 353.94C754.924 353.94 759.871 355.713 763.231 359.26C765.004 361.127 766.264 363.46 767.011 366.26C767.757 369.06 768.131 372.84 768.131 377.6V414.98C768.131 418.807 768.924 421.467 770.511 422.96C772.097 424.36 774.851 425.06 778.771 425.06V428C770.184 427.627 764.584 427.44 761.971 427.44C759.357 427.44 754.131 427.627 746.291 428V425.06C749.744 425.06 752.124 424.36 753.431 422.96C754.831 421.467 755.531 418.807 755.531 414.98V374.52C755.531 369.293 754.784 365.327 753.291 362.62C751.797 359.82 748.764 358.42 744.191 358.42C740.364 358.42 736.957 359.493 733.971 361.64C731.077 363.787 728.791 366.82 727.111 370.74C725.431 374.567 724.591 378.907 724.591 383.76V414.98C724.591 418.807 725.244 421.467 726.551 422.96C727.951 424.36 730.377 425.06 733.831 425.06V428C725.991 427.627 720.764 427.44 718.151 427.44C715.537 427.44 709.937 427.627 701.351 428V425.06C705.271 425.06 708.024 424.36 709.611 422.96C711.197 421.467 711.991 418.807 711.991 414.98V335.18C711.991 330.887 711.197 327.76 709.611 325.8C708.024 323.84 705.271 322.86 701.351 322.86V319.92C704.337 320.2 707.231 320.34 710.031 320.34C715.911 320.34 720.764 319.687 724.591 318.38V370.74ZM845.675 411.2C843.995 416.333 840.822 420.767 836.155 424.5C831.582 428.14 826.029 429.96 819.495 429.96C812.869 429.96 807.129 428.467 802.275 425.48C797.422 422.4 793.689 418.153 791.075 412.74C788.555 407.233 787.295 400.887 787.295 393.7C787.295 385.58 788.602 378.533 791.215 372.56C793.829 366.587 797.515 362.013 802.275 358.84C807.035 355.573 812.589 353.94 818.935 353.94C827.335 353.94 833.775 356.507 838.255 361.64C842.829 366.68 845.115 374.38 845.115 384.74H801.295C801.015 387.353 800.875 390.34 800.875 393.7C800.875 399.86 801.855 405.227 803.815 409.8C805.869 414.373 808.529 417.92 811.795 420.44C815.155 422.867 818.655 424.08 822.295 424.08C826.775 424.08 830.742 423.007 834.195 420.86C837.649 418.713 840.542 415.12 842.875 410.08L845.675 411.2ZM818.375 356.6C813.989 356.6 810.209 358.747 807.035 363.04C803.862 367.333 801.902 373.68 801.155 382.08H831.675C831.862 374.8 830.789 368.733 828.455 363.88C826.215 359.027 822.855 356.6 818.375 356.6ZM899.276 353.94C903.009 353.94 906.042 355.013 908.376 357.16C910.802 359.307 912.016 361.92 912.016 365C912.016 367.427 911.269 369.527 909.776 371.3C908.376 372.98 906.462 373.82 904.036 373.82C901.982 373.82 900.209 373.167 898.716 371.86C897.316 370.553 896.616 368.78 896.616 366.54C896.616 363.46 898.202 360.94 901.376 358.98C900.722 358.047 899.742 357.58 898.436 357.58C894.796 357.58 891.482 359.027 888.496 361.92C885.509 364.72 883.176 368.173 881.496 372.28C879.816 376.387 878.976 380.26 878.976 383.9V413.58C878.976 417.873 880.189 420.86 882.616 422.54C885.136 424.22 888.869 425.06 893.816 425.06V428L890.456 427.86C880.936 427.58 874.869 427.44 872.256 427.44C869.829 427.44 864.322 427.627 855.736 428V425.06C859.656 425.06 862.409 424.36 863.996 422.96C865.582 421.467 866.376 418.807 866.376 414.98V371.16C866.376 366.867 865.582 363.74 863.996 361.78C862.409 359.82 859.656 358.84 855.736 358.84V355.9C858.722 356.18 861.616 356.32 864.416 356.32C870.296 356.32 875.149 355.667 878.976 354.36V371.86C880.656 367.193 883.316 363.04 886.956 359.4C890.689 355.76 894.796 353.94 899.276 353.94Z" fill="white"/>
<rect x="67" y="619" width="1196" height="67" fill="#D56B38"/>
<path d="M579.666 510H577.905V486.655H569.788V485.015H587.783V486.655H579.666V510ZM602.361 510L601.934 507.061H601.797C600.863 508.257 599.9 509.106 598.909 509.607C597.929 510.097 596.767 510.342 595.422 510.342C593.599 510.342 592.181 509.875 591.167 508.94C590.153 508.006 589.646 506.713 589.646 505.061C589.646 503.25 590.398 501.842 591.902 500.84C593.417 499.837 595.605 499.307 598.464 499.25L602.002 499.148V497.917C602.002 496.152 601.643 494.819 600.925 493.918C600.208 493.018 599.051 492.568 597.456 492.568C595.736 492.568 593.953 493.047 592.107 494.004L591.475 492.534C593.514 491.577 595.531 491.099 597.524 491.099C599.564 491.099 601.085 491.628 602.087 492.688C603.101 493.748 603.608 495.4 603.608 497.644V510H602.361ZM595.525 508.804C597.507 508.804 599.068 508.24 600.208 507.112C601.358 505.972 601.934 504.395 601.934 502.378V500.549L598.687 500.686C596.077 500.811 594.215 501.222 593.098 501.917C591.993 502.6 591.44 503.671 591.44 505.129C591.44 506.292 591.794 507.197 592.5 507.847C593.218 508.485 594.226 508.804 595.525 508.804ZM617.588 510.342C614.728 510.342 612.643 509.271 611.333 507.129H611.213L611.265 508.564C611.31 509.408 611.333 510.33 611.333 511.333V518.408H609.641V491.423H611.077L611.401 494.072H611.504C612.78 492.067 614.819 491.064 617.622 491.064C620.129 491.064 622.037 491.89 623.347 493.542C624.669 495.183 625.33 497.576 625.33 500.72C625.33 503.774 624.635 506.143 623.245 507.83C621.866 509.504 619.98 510.342 617.588 510.342ZM617.554 508.838C619.456 508.838 620.926 508.132 621.963 506.719C623.011 505.306 623.535 503.329 623.535 500.789C623.535 495.331 621.564 492.603 617.622 492.603C615.457 492.603 613.868 493.201 612.854 494.397C611.84 495.582 611.333 497.519 611.333 500.208V500.754C611.333 503.66 611.817 505.733 612.786 506.975C613.765 508.217 615.355 508.838 617.554 508.838ZM646.487 492.893H642.112V510H640.42V492.893H636.968V491.902L640.42 491.27V489.834C640.42 487.555 640.836 485.886 641.667 484.827C642.511 483.756 643.883 483.22 645.786 483.22C646.812 483.22 647.837 483.374 648.862 483.682L648.469 485.151C647.558 484.867 646.652 484.724 645.752 484.724C644.43 484.724 643.49 485.117 642.932 485.903C642.385 486.678 642.112 487.943 642.112 489.697V491.423H646.487V492.893ZM665.439 500.686C665.439 503.717 664.705 506.086 663.235 507.795C661.765 509.493 659.737 510.342 657.151 510.342C655.522 510.342 654.086 509.949 652.844 509.163C651.602 508.376 650.651 507.249 649.99 505.779C649.329 504.309 648.999 502.611 648.999 500.686C648.999 497.655 649.734 495.297 651.204 493.611C652.673 491.913 654.69 491.064 657.253 491.064C659.806 491.064 661.805 491.925 663.252 493.645C664.71 495.354 665.439 497.701 665.439 500.686ZM650.776 500.686C650.776 503.238 651.335 505.232 652.451 506.667C653.579 508.092 655.168 508.804 657.219 508.804C659.27 508.804 660.854 508.092 661.97 506.667C663.098 505.232 663.662 503.238 663.662 500.686C663.662 498.123 663.092 496.134 661.953 494.722C660.825 493.309 659.236 492.603 657.185 492.603C655.134 492.603 653.551 493.309 652.434 494.722C651.329 496.123 650.776 498.111 650.776 500.686ZM677.898 491.064C678.684 491.064 679.527 491.144 680.427 491.304L680.103 492.927C679.328 492.734 678.525 492.637 677.693 492.637C676.109 492.637 674.81 493.309 673.796 494.653C672.782 495.998 672.275 497.695 672.275 499.746V510H670.583V491.423H672.019L672.19 494.773H672.31C673.073 493.406 673.888 492.449 674.753 491.902C675.619 491.344 676.667 491.064 677.898 491.064ZM706.267 510V497.952C706.267 496.083 705.874 494.727 705.088 493.884C704.302 493.03 703.083 492.603 701.431 492.603C699.209 492.603 697.58 493.167 696.543 494.294C695.518 495.411 695.005 497.228 695.005 499.746V510H693.313V491.423H694.749L695.073 493.97H695.176C696.383 492.033 698.531 491.064 701.619 491.064C705.834 491.064 707.942 493.326 707.942 497.849V510H706.267ZM721.46 510.342C718.76 510.342 716.652 509.51 715.137 507.847C713.633 506.183 712.881 503.853 712.881 500.857C712.881 497.895 713.61 495.525 715.068 493.748C716.527 491.959 718.492 491.064 720.964 491.064C723.152 491.064 724.878 491.828 726.143 493.354C727.407 494.881 728.04 496.955 728.04 499.575V500.942H714.658C714.681 503.494 715.273 505.443 716.436 506.787C717.609 508.132 719.284 508.804 721.46 508.804C722.52 508.804 723.448 508.73 724.246 508.582C725.055 508.433 726.074 508.114 727.305 507.625V509.163C726.257 509.618 725.288 509.926 724.399 510.085C723.511 510.256 722.531 510.342 721.46 510.342ZM720.964 492.568C719.176 492.568 717.74 493.161 716.658 494.346C715.575 495.519 714.943 497.217 714.761 499.438H726.245C726.245 497.285 725.778 495.605 724.844 494.397C723.91 493.178 722.616 492.568 720.964 492.568ZM748.018 510L743.95 497.576C743.688 496.733 743.352 495.496 742.942 493.867H742.839L742.48 495.132L741.711 497.61L737.576 510H735.901L730.586 491.423H732.397L735.371 502.19C736.066 504.856 736.522 506.816 736.738 508.069H736.841C737.513 505.403 738.003 503.631 738.311 502.754L742.139 491.423H743.677L747.317 502.72C748.137 505.397 748.639 507.169 748.821 508.035H748.923C749.014 507.294 749.47 505.312 750.291 502.087L753.127 491.423H754.836L749.795 510H748.018Z" fill="white"/>
<path d="M569.617 513.503H755.366V515.247H569.617V513.503Z" fill="white"/>
<rect x="57" y="58" width="1211" height="634" rx="24" stroke="white" stroke-width="20"/>
</svg>
